<svg width="21" height="21" viewBox="0 0 21 21" fill="none" xmlns="http://www.w3.org/2000/svg">
<path d="M18.1665 0.916504H2.83317C2.32484 0.916504 1.83733 1.11844 1.47788 1.47788C1.11844 1.83733 0.916504 2.32484 0.916504 2.83317V20.0832L4.74984 16.2498H18.1665C18.6748 16.2498 19.1623 16.0479 19.5218 15.6885C19.8812 15.329 20.0832 14.8415 20.0832 14.3332V2.83317C20.0832 2.32484 19.8812 1.83733 19.5218 1.47788C19.1623 1.11844 18.6748 0.916504 18.1665 0.916504ZM4.74984 7.62484H16.2498V9.5415H4.74984M12.4165 12.4165H4.74984V10.4998H12.4165M16.2498 6.6665H4.74984V4.74984H16.2498" fill="black"/>
</svg>
