<svg width="16" height="16" viewBox="0 0 16 16" fill="none" xmlns="http://www.w3.org/2000/svg">
<path d="M11.5211 9.53025C11.5823 9.02505 11.6282 8.51985 11.6282 7.99935C11.6282 7.47884 11.5823 6.97365 11.5211 6.46845H14.1083C14.2308 6.95834 14.3073 7.47119 14.3073 7.99935C14.3073 8.52751 14.2308 9.04036 14.1083 9.53025M10.1662 13.7861C10.6255 12.9365 10.9776 12.018 11.2226 11.0611H13.4806C12.7458 12.3241 11.5747 13.3039 10.1662 13.7861ZM9.97488 9.53025H6.3926C6.31606 9.02505 6.27013 8.51985 6.27013 7.99935C6.27013 7.47884 6.31606 6.96599 6.3926 6.46845H9.97488C10.0438 6.96599 10.0974 7.47884 10.0974 7.99935C10.0974 8.51985 10.0438 9.02505 9.97488 9.53025ZM8.18374 14.0923C7.54843 13.1738 7.03558 12.1557 6.72175 11.0611H9.64574C9.33191 12.1557 8.81906 13.1738 8.18374 14.0923ZM5.12197 4.93755H2.88687C3.61404 3.6669 4.79282 2.68713 6.19359 2.21255C5.73432 3.0622 5.38987 3.98074 5.12197 4.93755ZM2.88687 11.0611H5.12197C5.38987 12.018 5.73432 12.9365 6.19359 13.7861C4.79282 13.3039 3.61404 12.3241 2.88687 11.0611ZM2.2592 9.53025C2.13673 9.04036 2.06019 8.52751 2.06019 7.99935C2.06019 7.47119 2.13673 6.95834 2.2592 6.46845H4.84641C4.78517 6.97365 4.73924 7.47884 4.73924 7.99935C4.73924 8.51985 4.78517 9.02505 4.84641 9.53025M8.18374 1.89871C8.81906 2.81725 9.33191 3.84296 9.64574 4.93755H6.72175C7.03558 3.84296 7.54843 2.81725 8.18374 1.89871ZM13.4806 4.93755H11.2226C10.9776 3.98074 10.6255 3.0622 10.1662 2.21255C11.5747 2.69478 12.7458 3.6669 13.4806 4.93755ZM8.18374 0.344849C3.95083 0.344849 0.529297 3.78937 0.529297 7.99935C0.529297 10.0294 1.33575 11.9764 2.77123 13.4119C3.48201 14.1227 4.32583 14.6865 5.25451 15.0712C6.18319 15.4559 7.17855 15.6538 8.18374 15.6538C10.2138 15.6538 12.1608 14.8474 13.5963 13.4119C15.0317 11.9764 15.8382 10.0294 15.8382 7.99935C15.8382 6.99415 15.6402 5.99878 15.2555 5.0701C14.8709 4.14141 14.307 3.29759 13.5963 2.5868C12.8855 1.87601 12.0417 1.31219 11.113 0.927513C10.1843 0.542838 9.18894 0.344849 8.18374 0.344849Z" fill="#FFCB05"/>
</svg>
