<svg width="15" height="14" viewBox="0 0 15 14" fill="none" xmlns="http://www.w3.org/2000/svg">
<path d="M13.3075 9.6786C12.3507 9.6786 11.4321 9.52551 10.5748 9.24229C10.3069 9.15809 10.0084 9.21933 9.79409 9.426L8.11011 11.11C5.9439 10.0077 4.16807 8.23955 3.06583 6.06567L4.74981 4.37403C4.96413 4.17501 5.02537 3.87649 4.94117 3.60858C4.65796 2.75128 4.50487 1.83274 4.50487 0.875924C4.50487 0.454926 4.16042 0.110474 3.73942 0.110474H1.06037C0.639372 0.110474 0.294922 0.454926 0.294922 0.875924C0.294922 8.0635 6.11996 13.8886 13.3075 13.8886C13.7285 13.8886 14.0729 13.5441 14.0729 13.1231V10.444C14.0729 10.0231 13.7285 9.6786 13.3075 9.6786ZM12.542 6.99952H14.0729C14.0729 3.19524 10.9882 0.110474 7.18392 0.110474V1.64137C10.1462 1.64137 12.542 4.03723 12.542 6.99952ZM9.48026 6.99952H11.0111C11.0111 4.88688 9.29655 3.17227 7.18392 3.17227V4.70317C8.45456 4.70317 9.48026 5.72888 9.48026 6.99952Z" fill="#FFCB05"/>
</svg>
