<svg width="19" height="19" viewBox="0 0 19 19" fill="none" xmlns="http://www.w3.org/2000/svg">
<path d="M9.08598 0C4.14729 0 0.122167 4.02513 0.122167 8.96382C0.122167 10.5467 0.538247 12.0844 1.31614 13.4412L0.0498047 18.0905L4.79855 16.8422C6.11011 17.5568 7.58448 17.9367 9.08598 17.9367C14.0247 17.9367 18.0498 13.9116 18.0498 8.97286C18.0498 6.57588 17.1181 4.32362 15.4267 2.63216C13.7352 0.931658 11.483 0 9.08598 0ZM9.09503 1.51055C11.085 1.51055 12.9483 2.28844 14.3594 3.6995C15.7614 5.11055 16.5393 6.98291 16.5393 8.97286C16.5393 13.0794 13.1925 16.4171 9.08598 16.4171C7.74729 16.4171 6.43573 16.0643 5.29604 15.3769L5.02468 15.2231L2.20257 15.9648L2.95332 13.2151L2.77242 12.9256C2.03071 11.7588 1.63272 10.3749 1.63272 8.96382C1.64176 4.85729 4.97945 1.51055 9.09503 1.51055ZM5.91111 4.82111C5.76639 4.82111 5.52217 4.87538 5.31413 5.10151C5.11513 5.32764 4.52719 5.8794 4.52719 6.97387C4.52719 8.07739 5.33222 9.13568 5.43171 9.28945C5.55835 9.44322 7.02367 11.7045 9.27593 12.6633C9.8096 12.9075 10.2257 13.0432 10.5513 13.1427C11.085 13.3146 11.5734 13.2874 11.9624 13.2332C12.3965 13.1698 13.283 12.6905 13.4729 12.1658C13.6629 11.6412 13.6629 11.198 13.6086 11.0985C13.5453 11.008 13.4006 10.9538 13.1744 10.8543C12.9483 10.7276 11.8448 10.1849 11.6458 10.1126C11.4377 10.0402 11.3111 10.004 11.1393 10.2211C10.9945 10.4472 10.5604 10.9538 10.4337 11.0985C10.298 11.2523 10.1714 11.2704 9.95433 11.1618C9.71915 11.0442 8.99553 10.809 8.14528 10.0492C7.47593 9.45226 7.03272 8.7196 6.89704 8.49347C6.7885 8.27638 6.88799 8.1407 6.99654 8.04121C7.09603 7.94171 7.24076 7.77889 7.33121 7.64322C7.4488 7.51658 7.48498 7.41708 7.55734 7.27236C7.6297 7.11859 7.59352 6.99196 7.53925 6.88342C7.48498 6.78392 7.03272 5.66231 6.84277 5.2191C6.66186 4.78492 6.48096 4.8392 6.33624 4.83015C6.2096 4.83015 6.06488 4.82111 5.91111 4.82111Z" fill="black"/>
</svg>
