<svg width="28" height="20" viewBox="0 0 28 20" fill="none" xmlns="http://www.w3.org/2000/svg">
<path d="M2.45833 0.138306C1.80634 0.138306 1.18106 0.397308 0.720029 0.858335C0.259002 1.31936 0 1.94465 0 2.59664V16.1175H2.45833C2.45833 17.0955 2.84684 18.0334 3.53838 18.7249C4.22992 19.4165 5.16785 19.805 6.14583 19.805C7.12382 19.805 8.06175 19.4165 8.75329 18.7249C9.44483 18.0334 9.83333 17.0955 9.83333 16.1175H17.2083C17.2083 17.0955 17.5968 18.0334 18.2884 18.7249C18.9799 19.4165 19.9178 19.805 20.8958 19.805C21.8738 19.805 22.8118 19.4165 23.5033 18.7249C24.1948 18.0334 24.5833 17.0955 24.5833 16.1175H27.0417V9.97164L23.3542 5.05497H19.6667V0.138306M11.0625 2.59664L15.9792 7.51331L11.0625 12.43V8.74247H3.6875V6.28414H11.0625M19.6667 6.89872H22.7396L25.161 9.97164H19.6667M6.14583 14.2737C6.63483 14.2737 7.10379 14.468 7.44956 14.8137C7.79533 15.1595 7.98958 15.6285 7.98958 16.1175C7.98958 16.6065 7.79533 17.0754 7.44956 17.4212C7.10379 17.767 6.63483 17.9612 6.14583 17.9612C5.65684 17.9612 5.18788 17.767 4.84211 17.4212C4.49634 17.0754 4.30208 16.6065 4.30208 16.1175C4.30208 15.6285 4.49634 15.1595 4.84211 14.8137C5.18788 14.468 5.65684 14.2737 6.14583 14.2737ZM20.8958 14.2737C21.3848 14.2737 21.8538 14.468 22.1996 14.8137C22.5453 15.1595 22.7396 15.6285 22.7396 16.1175C22.7396 16.6065 22.5453 17.0754 22.1996 17.4212C21.8538 17.767 21.3848 17.9612 20.8958 17.9612C20.4068 17.9612 19.9379 17.767 19.5921 17.4212C19.2463 17.0754 19.0521 16.6065 19.0521 16.1175C19.0521 15.6285 19.2463 15.1595 19.5921 14.8137C19.9379 14.468 20.4068 14.2737 20.8958 14.2737Z" fill="#FFCB05"/>
</svg>
