<svg width="646" height="214" viewBox="0 0 646 214" fill="none" xmlns="http://www.w3.org/2000/svg">
<path fill-rule="evenodd" clip-rule="evenodd" d="M153.253 177.187C178.452 159.606 194.693 130.401 194.693 97.345C194.693 43.6168 151.138 0.0615234 97.4096 0.0615234C43.6814 0.0615234 0.125977 43.6168 0.125977 97.345C0.125977 151.073 43.6814 194.629 97.4096 194.629C97.4915 194.629 97.8191 194.629 97.901 194.629V174.484C55.5696 174.484 21.0076 140.168 21.0076 97.8363C21.0076 55.505 55.3239 21.1887 97.6553 21.1887C139.987 21.1887 174.303 55.505 174.303 97.8363C174.303 115.76 168.15 132.183 157.842 145.236C153.59 150.621 148.876 155.422 143.349 159.498L153.253 177.187Z" fill="white"/>
<path d="M157.842 145.236L97.9608 34.5454L97.9614 79.1572L143.349 159.498C148.876 155.422 153.59 150.621 157.842 145.236Z" fill="white"/>
<path d="M97.96 34.5445L45.082 134.44C45.082 134.44 50.978 143.284 59.821 149.362L97.9606 79.1563L97.96 34.5445Z" fill="white"/>
<path fill-rule="evenodd" clip-rule="evenodd" d="M153.253 177.187C178.452 159.606 194.693 130.401 194.693 97.345C194.693 43.6168 151.138 0.0615234 97.4096 0.0615234C43.6814 0.0615234 0.125977 43.6168 0.125977 97.345C0.125977 151.073 43.6814 194.628 97.4096 194.628C97.4915 194.628 97.8191 194.629 97.901 194.628V174.484C55.5696 174.484 21.0076 140.168 21.0076 97.8363C21.0076 55.505 55.3239 21.1887 97.6553 21.1887C139.987 21.1887 174.303 55.505 174.303 97.8363C174.303 115.76 168.15 132.183 157.842 145.236C153.59 150.621 148.876 155.422 143.349 159.498L153.253 177.187Z" fill="white"/>
<path d="M157.842 145.236L98.0335 34.4615L97.9613 79.1572L143.349 159.498C148.876 155.422 153.59 150.621 157.842 145.236Z" fill="white"/>
<path d="M98.0343 34.4609L45.1113 134.574C45.1113 134.574 51.2857 142.953 59.8503 149.229L98.1484 78.8165L98.0343 34.4609Z" fill="white"/>
<path fill-rule="evenodd" clip-rule="evenodd" d="M633.079 91.1072V50.3469C633.203 40.3888 629.987 33.1522 623.43 28.6988C616.874 24.1837 608.957 21.957 599.679 21.957H599.617C593.37 21.957 587.123 22.6374 580.814 24.06C575.804 24.9877 571.227 26.5959 566.898 29.1318V45.7699C570.609 42.8011 574.815 40.6981 579.33 39.3373C584.154 37.9148 589.164 37.1107 594.422 37.0488C608.338 37.0488 615.328 42.8629 615.328 54.4292V62.5936C608.524 58.4495 599.988 56.4084 589.783 56.4084C579.825 56.4703 572.155 58.8207 566.836 63.3977C561.455 68.0984 558.733 75.0258 558.733 84.3654C558.733 94.1998 562.073 101.189 568.63 105.395C575.248 109.539 583.598 111.642 593.68 111.704C606.359 111.642 616.132 110.158 622.874 107.189C629.677 104.22 633.079 98.8387 633.079 91.1072ZM596.216 69.8921C602.772 69.8303 609.143 71.0673 615.328 73.665V90.1176C615.39 91.5402 615.08 92.7772 614.214 93.9524C613.348 95.1276 612.297 95.8698 610.936 96.1791C608.029 97.2306 602.957 97.7254 595.721 97.7254C590.834 97.8491 586.319 96.6739 582.113 94.1379C580.32 93.0865 578.897 91.602 577.846 89.6228C576.856 87.8291 576.361 85.788 576.423 83.4376C576.299 81.5202 576.67 79.6028 577.598 77.7472C578.464 75.9535 579.763 74.4691 581.495 73.2939C584.835 71.0054 589.721 69.8921 596.216 69.8921Z" fill="white"/>
<path fill-rule="evenodd" clip-rule="evenodd" d="M506.409 23.8126H492.554V38.657H506.409V87.2724C506.347 94.8802 508.573 100.88 512.965 105.086C517.48 109.23 523.665 111.333 531.458 111.395C536.283 111.518 541.045 110.59 545.623 108.673V92.8391C543.891 93.7669 542.159 94.3854 540.489 94.7565C538.757 95.2513 536.84 95.4987 534.798 95.5606C531.026 95.5606 528.428 94.6328 526.943 92.7772C525.459 90.9217 524.717 87.8291 524.717 83.6232V38.657H545.623V23.8126H524.717V0.0615234H506.409V23.8126Z" fill="white"/>
<path fill-rule="evenodd" clip-rule="evenodd" d="M445.791 21.957C439.544 21.957 433.297 22.6374 426.988 24.06C421.978 24.9877 417.339 26.5959 413.072 29.1318V45.7699C416.783 42.8011 420.989 40.6981 425.504 39.3373C430.452 37.8529 435.462 37.0488 440.534 37.0488C454.512 37.0488 461.563 42.8629 461.563 54.4292V62.5936C454.76 58.5114 446.224 56.4703 435.957 56.4703C426.06 56.4703 418.391 58.7588 413.01 63.3977C407.629 68.0984 404.907 75.0258 404.907 84.3654C404.907 94.1998 408.247 101.189 414.804 105.457C421.483 109.601 429.833 111.704 439.853 111.704C452.533 111.704 462.244 110.158 468.986 107.189C475.789 104.22 479.191 98.8387 479.191 91.1072V50.3469C479.315 40.3888 476.099 33.1522 469.604 28.6988C463.11 24.1837 455.131 21.957 445.791 21.957ZM427.669 73.2939C431.009 71.0054 435.957 69.8921 442.389 69.8921C448.946 69.8303 455.316 71.0673 461.502 73.665V90.1176C461.563 91.4783 461.192 92.7154 460.388 93.9524C459.522 95.0657 458.409 95.808 457.048 96.1791C454.203 97.2306 449.131 97.7254 441.895 97.7254C436.946 97.8491 432.493 96.6739 428.349 94.1379C426.493 93.0865 425.071 91.602 423.958 89.6228C422.906 87.7054 422.473 85.6643 422.597 83.4376C422.473 81.3965 422.906 79.4791 423.772 77.7472C424.638 75.9535 425.937 74.4691 427.669 73.2939Z" fill="white"/>
<path fill-rule="evenodd" clip-rule="evenodd" d="M445.791 21.957C439.544 21.957 433.297 22.6374 426.988 24.06C421.978 24.9877 417.339 26.5959 413.072 29.1318V45.7699C416.783 42.8011 420.989 40.6981 425.504 39.3373C430.452 37.8529 435.462 37.0488 440.534 37.0488C454.512 37.0488 461.563 42.8629 461.563 54.4292V62.5936C454.76 58.5114 446.224 56.4703 435.957 56.4703C426.06 56.4703 418.391 58.7588 413.01 63.3977C407.629 68.0984 404.907 75.0258 404.907 84.3654C404.907 94.1998 408.247 101.189 414.804 105.457C421.483 109.601 429.833 111.704 439.853 111.704C452.533 111.704 462.244 110.158 468.986 107.189C475.789 104.22 479.191 98.8387 479.191 91.1072V50.3469C479.315 40.3888 476.099 33.1522 469.604 28.6988C463.11 24.1837 455.131 21.957 445.791 21.957ZM427.669 73.2939C431.009 71.0054 435.957 69.8921 442.389 69.8921C448.946 69.8303 455.316 71.0673 461.502 73.665V90.1176C461.563 91.4783 461.192 92.7154 460.388 93.9524C459.522 95.0657 458.409 95.808 457.048 96.1791C454.203 97.2306 449.131 97.7254 441.895 97.7254C436.946 97.8491 432.493 96.6739 428.349 94.1379C426.493 93.0865 425.071 91.602 423.958 89.6228C422.906 87.7054 422.473 85.6643 422.597 83.4376C422.473 81.3965 422.906 79.4791 423.772 77.7472C424.638 75.9535 425.937 74.4691 427.669 73.2939Z" fill="white"/>
<path fill-rule="evenodd" clip-rule="evenodd" d="M394.643 23.812H376.087L352.893 87.5811L329.513 23.812H309.226L344.11 108.673C342.254 114.672 340.09 119.187 337.615 122.094C336.255 123.579 334.708 124.692 332.915 125.496C330.936 126.238 329.018 126.548 327.163 126.486C324.194 126.424 321.349 125.867 318.627 124.754V140.093C322.153 141.516 325.926 142.196 329.884 142.134C342.254 142.134 352.089 132.857 359.325 114.425L394.643 23.812Z" fill="white"/>
<path fill-rule="evenodd" clip-rule="evenodd" d="M265.743 21.957C259.434 21.957 253.125 22.6374 246.816 24.06C241.806 24.9877 237.229 26.5959 232.899 29.1318V45.7699C236.611 42.8629 240.816 40.6981 245.332 39.3373C250.28 37.8529 255.29 37.0488 260.423 37.0488C274.34 37.0488 281.391 42.8629 281.391 54.4292V62.5936C274.587 58.5114 266.052 56.4703 255.846 56.4703C245.95 56.4703 238.281 58.7588 232.899 63.3977C227.456 68.0984 224.797 75.0258 224.797 84.3654C224.797 94.1998 228.075 101.189 234.693 105.457C241.373 109.601 249.661 111.704 259.681 111.704C272.423 111.704 282.133 110.158 288.875 107.189C295.741 104.22 299.081 98.8387 299.081 91.1072V50.3469C299.266 40.3888 296.05 33.1522 289.494 28.6988C282.937 24.1837 275.02 21.957 265.743 21.957ZM247.558 73.2939C250.96 71.0054 255.908 69.8921 262.341 69.8921C268.959 69.8303 275.33 71.1291 281.391 73.665V90.1176C281.453 91.5402 281.082 92.7772 280.278 93.9524C279.474 95.1276 278.299 95.8698 277 96.1791C274.093 97.2306 269.083 97.7254 261.784 97.7254C256.898 97.8491 252.383 96.6739 248.301 94.1379C246.383 93.0865 244.961 91.5402 243.909 89.6228C242.858 87.7054 242.425 85.6643 242.548 83.4376C242.425 81.4584 242.796 79.5409 243.723 77.7472C244.651 75.8298 245.95 74.3454 247.558 73.2939Z" fill="white"/>
<path opacity="0.5" d="M244.009 194.367C240.128 194.367 236.794 193.591 234.007 192.039C231.255 190.451 229.138 188.228 227.656 185.37C226.174 182.477 225.433 179.072 225.433 175.156C225.433 171.24 226.174 167.853 227.656 164.995C229.138 162.137 231.255 159.932 234.007 158.379C236.794 156.792 240.128 155.998 244.009 155.998C246.514 155.998 248.878 156.386 251.101 157.162C253.359 157.938 255.211 159.05 256.658 160.496L254.435 165.895C252.847 164.554 251.224 163.584 249.566 162.984C247.908 162.349 246.126 162.031 244.221 162.031C240.446 162.031 237.57 163.178 235.594 165.471C233.618 167.729 232.631 170.958 232.631 175.156C232.631 179.355 233.618 182.601 235.594 184.894C237.57 187.187 240.446 188.334 244.221 188.334C246.126 188.334 247.908 188.034 249.566 187.434C251.224 186.799 252.847 185.811 254.435 184.471L256.658 189.869C255.211 191.28 253.359 192.391 251.101 193.203C248.878 193.979 246.514 194.367 244.009 194.367ZM293.771 194.367C290.172 194.367 287.015 193.573 284.298 191.986C281.616 190.398 279.535 188.175 278.053 185.317C276.571 182.424 275.83 179.037 275.83 175.156C275.83 171.24 276.571 167.853 278.053 164.995C279.535 162.137 281.616 159.932 284.298 158.379C286.979 156.792 290.137 155.998 293.771 155.998C297.405 155.998 300.563 156.792 303.244 158.379C305.926 159.932 308.007 162.137 309.489 164.995C310.971 167.853 311.712 171.222 311.712 175.103C311.712 179.019 310.971 182.424 309.489 185.317C308.007 188.175 305.926 190.398 303.244 191.986C300.563 193.573 297.405 194.367 293.771 194.367ZM293.771 188.546C297.193 188.546 299.857 187.364 301.762 185C303.668 182.636 304.62 179.355 304.62 175.156C304.62 170.922 303.668 167.641 301.762 165.312C299.892 162.984 297.229 161.819 293.771 161.819C290.349 161.819 287.685 162.984 285.78 165.312C283.874 167.641 282.922 170.922 282.922 175.156C282.922 179.355 283.874 182.636 285.78 185C287.685 187.364 290.349 188.546 293.771 188.546ZM334.424 193.838V156.527H340.087L353.318 180.925L366.496 156.527H372.052V193.838H365.913V168.699L355.223 188.175H351.254L340.563 168.805V193.838H334.424ZM396.088 193.838V156.527H401.751L414.982 180.925L428.159 156.527H433.716V193.838H427.577V168.699L416.887 188.175H412.918L402.227 168.805V193.838H396.088ZM457.646 193.838V156.527H482.467V161.925H464.156V172.192H481.303V177.591H464.156V188.44H482.467V193.838H457.646ZM504.942 193.838V156.527H521.137C525.23 156.527 528.387 157.515 530.61 159.491C532.833 161.431 533.944 164.166 533.944 167.694C533.944 170.481 533.221 172.792 531.774 174.627C530.328 176.426 528.246 177.643 525.529 178.279C527.329 178.843 528.811 180.201 529.975 182.354L536.22 193.838H528.758L522.301 181.93C521.666 180.766 520.908 179.972 520.025 179.549C519.179 179.125 518.085 178.914 516.744 178.914H511.717V193.838H504.942ZM511.717 173.886H519.973C524.912 173.886 527.382 171.875 527.382 167.853C527.382 163.866 524.912 161.872 519.973 161.872H511.717V173.886ZM574.042 194.367C570.161 194.367 566.827 193.591 564.04 192.039C561.288 190.451 559.171 188.228 557.689 185.37C556.207 182.477 555.466 179.072 555.466 175.156C555.466 171.24 556.207 167.853 557.689 164.995C559.171 162.137 561.288 159.932 564.04 158.379C566.827 156.792 570.161 155.998 574.042 155.998C576.547 155.998 578.911 156.386 581.134 157.162C583.392 157.938 585.244 159.05 586.691 160.496L584.468 165.895C582.88 164.554 581.257 163.584 579.599 162.984C577.941 162.349 576.159 162.031 574.254 162.031C570.479 162.031 567.603 163.178 565.627 165.471C563.652 167.729 562.664 170.958 562.664 175.156C562.664 179.355 563.652 182.601 565.627 184.894C567.603 187.187 570.479 188.334 574.254 188.334C576.159 188.334 577.941 188.034 579.599 187.434C581.257 186.799 582.88 185.811 584.468 184.471L586.691 189.869C585.244 191.28 583.392 192.391 581.134 193.203C578.911 193.979 576.547 194.367 574.042 194.367ZM608.321 193.838V156.527H633.142V161.925H614.83V172.192H631.977V177.591H614.83V188.44H633.142V193.838H608.321Z" fill="white"/>
</svg>
