<svg width="320" height="320" viewBox="0 0 320 320" fill="none" xmlns="http://www.w3.org/2000/svg">
<path d="M72.417 70.633C72.5532 70.4084 72.6439 70.1592 72.6839 69.8996C72.7238 69.64 72.7122 69.3751 72.6498 69.12C72.5873 68.8648 72.4752 68.6245 72.3199 68.4127C72.1646 68.2009 71.9691 68.0217 71.7445 67.8855C71.5199 67.7492 71.2707 67.6586 71.0111 67.6186C70.7515 67.5787 70.4866 67.5903 70.2315 67.6527C69.9763 67.7152 69.736 67.8273 69.5242 67.9826C69.3124 68.1379 69.1332 68.3334 68.997 68.558L65.884 73.687C65.6088 74.1405 65.5251 74.6848 65.6512 75.2C65.7773 75.7153 66.103 76.1593 66.5565 76.4345C67.01 76.7097 67.5543 76.7934 68.0695 76.6673C68.5848 76.5412 69.0288 76.2155 69.304 75.762L72.417 70.633ZM64.116 84.312C64.3912 83.8585 64.4749 83.3142 64.3488 82.799C64.2227 82.2837 63.897 81.8397 63.4435 81.5645C62.99 81.2893 62.4457 81.2056 61.9305 81.3317C61.4152 81.4578 60.9712 81.7835 60.696 82.237L57.583 87.366C57.3078 87.8195 57.2241 88.3638 57.3502 88.879C57.4763 89.3943 57.802 89.8383 58.2555 90.1135C58.709 90.3887 59.2533 90.4724 59.7685 90.3463C60.2838 90.2202 60.7278 89.8945 61.003 89.441L64.116 84.312ZM76.113 85.744C75.8378 86.1973 75.3938 86.5228 74.8786 86.6488C74.3635 86.7748 73.8194 86.6911 73.366 86.416L68.237 83.303C67.7835 83.0278 67.4578 82.5838 67.3317 82.0685C67.2056 81.5533 67.2893 81.009 67.5645 80.5555C67.8397 80.102 68.2837 79.7763 68.799 79.6502C69.3142 79.5241 69.8585 79.6078 70.312 79.883L75.441 82.996C75.6656 83.1323 75.8611 83.3115 76.0165 83.5233C76.1718 83.7352 76.2839 83.9756 76.3463 84.2308C76.4087 84.486 76.4202 84.751 76.3802 85.0106C76.3402 85.2702 76.2494 85.5195 76.113 85.744ZM59.688 78.115C59.9126 78.2512 60.1618 78.3419 60.4214 78.3819C60.681 78.4218 60.9459 78.4102 61.201 78.3478C61.4562 78.2853 61.6965 78.1732 61.9083 78.0179C62.1201 77.8626 62.2993 77.6671 62.4355 77.4425C62.5717 77.2179 62.6624 76.9687 62.7024 76.7091C62.7423 76.4495 62.7307 76.1846 62.6683 75.9295C62.6058 75.6743 62.4937 75.434 62.3384 75.2222C62.1831 75.0104 61.9876 74.8312 61.763 74.695L56.634 71.582C56.4094 71.4457 56.1602 71.3551 55.9006 71.3151C55.641 71.2752 55.3761 71.2868 55.121 71.3492C54.8658 71.4117 54.6255 71.5238 54.4137 71.6791C54.2019 71.8344 54.0227 72.0299 53.8865 72.2545C53.7503 72.4791 53.6596 72.7283 53.6196 72.9879C53.5797 73.2475 53.5913 73.5124 53.6537 73.7675C53.7162 74.0227 53.8283 74.263 53.9836 74.4748C54.1389 74.6866 54.3344 74.8657 54.559 75.002L59.688 78.115Z" fill="#37DAE4"/>
<path fill-rule="evenodd" clip-rule="evenodd" d="M262.093 106.254C262.226 105.74 262.149 105.195 261.88 104.738C261.61 104.281 261.171 103.95 260.657 103.817C260.143 103.684 259.598 103.761 259.141 104.03C258.684 104.3 258.353 104.739 258.22 105.253L256.718 111.062C256.585 111.576 256.662 112.121 256.931 112.578C257.201 113.035 257.64 113.366 258.154 113.499C258.668 113.632 259.213 113.555 259.67 113.286C260.127 113.016 260.458 112.577 260.591 112.063L262.093 106.254ZM258.089 121.745C258.222 121.231 258.145 120.686 257.876 120.229C257.606 119.772 257.167 119.441 256.653 119.308C256.139 119.175 255.594 119.252 255.137 119.521C254.68 119.791 254.349 120.23 254.216 120.744L252.714 126.553C252.581 127.067 252.658 127.612 252.927 128.069C253.197 128.526 253.636 128.857 254.15 128.99C254.664 129.123 255.209 129.046 255.666 128.777C256.123 128.507 256.454 128.068 256.587 127.554L258.089 121.745ZM269.989 119.657C269.923 119.911 269.808 120.15 269.65 120.36C269.492 120.57 269.294 120.746 269.068 120.88C268.842 121.013 268.591 121.101 268.331 121.137C268.071 121.174 267.806 121.159 267.552 121.093L261.743 119.591C261.489 119.525 261.25 119.41 261.04 119.252C260.83 119.094 260.654 118.896 260.52 118.67C260.387 118.444 260.299 118.193 260.263 117.933C260.226 117.673 260.241 117.408 260.307 117.154C260.373 116.9 260.488 116.661 260.646 116.451C260.804 116.241 261.002 116.065 261.228 115.931C261.454 115.798 261.705 115.71 261.965 115.674C262.225 115.637 262.49 115.652 262.744 115.718L268.553 117.22C268.807 117.286 269.046 117.401 269.256 117.559C269.466 117.717 269.642 117.915 269.776 118.141C269.909 118.367 269.997 118.618 270.033 118.878C270.07 119.138 270.055 119.403 269.989 119.657ZM252.062 117.088C252.316 117.154 252.581 117.169 252.841 117.132C253.101 117.096 253.352 117.008 253.578 116.875C253.804 116.741 254.002 116.565 254.16 116.355C254.318 116.145 254.433 115.906 254.499 115.652C254.631 115.139 254.555 114.593 254.285 114.137C254.016 113.68 253.576 113.349 253.063 113.216L247.254 111.714C246.741 111.581 246.195 111.658 245.738 111.927C245.281 112.196 244.95 112.636 244.817 113.149C244.751 113.403 244.736 113.668 244.773 113.928C244.809 114.188 244.897 114.439 245.03 114.665C245.164 114.891 245.34 115.089 245.55 115.247C245.76 115.405 245.999 115.52 246.253 115.586L252.062 117.088Z" fill="#37DAE4"/>
<path d="M196.858 220.528C196.725 220.015 196.394 219.575 195.937 219.306C195.48 219.037 194.934 218.96 194.421 219.093C193.908 219.226 193.468 219.557 193.199 220.014C192.93 220.471 192.853 221.017 192.986 221.53L194.49 227.339C194.554 227.596 194.668 227.837 194.825 228.049C194.983 228.261 195.181 228.44 195.408 228.575C195.635 228.711 195.887 228.799 196.148 228.837C196.41 228.874 196.677 228.859 196.933 228.793C197.188 228.727 197.429 228.61 197.639 228.451C197.85 228.291 198.027 228.091 198.16 227.863C198.293 227.634 198.379 227.382 198.414 227.12C198.448 226.858 198.431 226.591 198.362 226.336L196.858 220.528ZM200.868 236.017C200.735 235.504 200.404 235.064 199.947 234.795C199.49 234.526 198.944 234.449 198.431 234.582C197.918 234.715 197.478 235.046 197.209 235.503C196.94 235.96 196.863 236.506 196.996 237.019L198.5 242.828C198.564 243.085 198.678 243.326 198.835 243.538C198.993 243.75 199.191 243.929 199.418 244.064C199.645 244.2 199.897 244.288 200.159 244.326C200.42 244.363 200.687 244.348 200.943 244.282C201.198 244.216 201.439 244.099 201.649 243.94C201.86 243.78 202.037 243.58 202.17 243.352C202.303 243.123 202.389 242.871 202.424 242.609C202.458 242.347 202.441 242.08 202.372 241.825L200.868 236.017ZM210.264 228.42C210.397 228.933 210.32 229.479 210.051 229.936C209.782 230.393 209.342 230.724 208.829 230.857L203.02 232.361C202.766 232.427 202.501 232.442 202.241 232.405C201.981 232.369 201.73 232.281 201.504 232.148C201.278 232.015 201.08 231.838 200.922 231.628C200.764 231.419 200.648 231.18 200.583 230.925C200.517 230.671 200.502 230.406 200.538 230.146C200.575 229.886 200.662 229.636 200.795 229.409C200.929 229.183 201.105 228.985 201.315 228.827C201.525 228.669 201.764 228.554 202.018 228.488L207.826 226.985C208.08 226.919 208.345 226.904 208.605 226.94C208.865 226.977 209.116 227.064 209.342 227.197C209.569 227.331 209.767 227.507 209.925 227.717C210.083 227.927 210.198 228.166 210.264 228.42ZM193.34 234.867C193.854 234.734 194.293 234.402 194.562 233.945C194.832 233.488 194.908 232.943 194.775 232.429C194.642 231.915 194.31 231.476 193.853 231.207C193.396 230.937 192.851 230.861 192.337 230.994L186.529 232.498C186.275 232.564 186.036 232.679 185.826 232.837C185.616 232.995 185.44 233.193 185.306 233.419C185.173 233.646 185.086 233.896 185.049 234.156C185.013 234.416 185.028 234.681 185.094 234.935C185.159 235.19 185.275 235.429 185.433 235.638C185.591 235.848 185.789 236.025 186.015 236.158C186.241 236.291 186.492 236.379 186.752 236.415C187.012 236.452 187.277 236.437 187.531 236.371L193.34 234.867ZM63.736 255.027C63.9071 255.227 64.1159 255.391 64.3505 255.51C64.5851 255.629 64.8409 255.7 65.1032 255.72C65.3655 255.74 65.6291 255.708 65.8791 255.626C66.129 255.544 66.3603 255.414 66.5597 255.242C66.7591 255.071 66.9227 254.861 67.0411 254.626C67.1595 254.392 67.2304 254.136 67.2498 253.873C67.2691 253.611 67.2365 253.347 67.1539 253.098C67.0712 252.848 66.9401 252.617 66.768 252.418L62.855 247.87C62.6839 247.67 62.4751 247.506 62.2405 247.387C62.0059 247.268 61.7501 247.197 61.4878 247.177C61.2255 247.157 60.9619 247.189 60.7119 247.271C60.462 247.353 60.2307 247.483 60.0313 247.655C59.8319 247.826 59.6683 248.036 59.5499 248.27C59.4315 248.505 59.3606 248.761 59.3412 249.024C59.3219 249.286 59.3545 249.55 59.4371 249.799C59.5198 250.049 59.6509 250.28 59.823 250.479L63.736 255.027ZM78.156 251.854C78.5566 251.508 78.8034 251.016 78.8424 250.488C78.8813 249.96 78.7092 249.438 78.3638 249.037C78.0184 248.635 77.5278 248.387 76.9998 248.347C76.4717 248.307 75.9493 248.478 75.547 248.822L70.999 252.736C70.5984 253.082 70.3516 253.574 70.3126 254.102C70.2737 254.63 70.4458 255.152 70.7912 255.553C71.1366 255.955 71.6272 256.203 72.1552 256.243C72.6833 256.283 73.2057 256.112 73.608 255.768L78.156 251.854ZM66.027 262.29C66.2268 262.119 66.3909 261.91 66.5099 261.675C66.6289 261.441 66.7004 261.185 66.7204 260.923C66.7404 260.66 66.7084 260.397 66.6264 260.147C66.5443 259.897 66.4138 259.666 66.2422 259.466C66.0706 259.267 65.8614 259.103 65.6265 258.985C65.3916 258.866 65.1357 258.796 64.8733 258.776C64.611 258.757 64.3474 258.789 64.0977 258.872C63.8479 258.955 63.617 259.086 63.418 259.258L58.87 263.171C58.6702 263.342 58.5061 263.551 58.3871 263.786C58.2681 264.02 58.1966 264.276 58.1766 264.538C58.1566 264.8 58.1885 265.064 58.2706 265.314C58.3527 265.564 58.4832 265.795 58.6548 265.995C58.8264 266.194 59.0356 266.358 59.2705 266.476C59.5054 266.594 59.7613 266.665 60.0237 266.685C60.286 266.704 60.5496 266.671 60.7993 266.589C61.0491 266.506 61.28 266.375 61.479 266.203L66.027 262.29ZM76.992 267.367C76.5899 267.713 76.0669 267.885 75.5381 267.845C75.0093 267.805 74.5179 267.557 74.172 267.155L70.259 262.607C69.9146 262.205 69.7437 261.682 69.784 261.154C69.8242 260.626 70.0722 260.136 70.4737 259.79C70.8751 259.445 71.3971 259.273 71.9253 259.312C72.4535 259.351 72.9446 259.597 73.291 259.998L77.204 264.546C77.3754 264.745 77.5058 264.976 77.5879 265.226C77.67 265.475 77.7021 265.738 77.6824 266C77.6627 266.262 77.5916 266.518 77.4732 266.752C77.3547 266.987 77.1912 267.196 76.992 267.367Z" fill="#37DAE4"/>
<path fill-rule="evenodd" clip-rule="evenodd" d="M138.629 59.686C139.153 59.7696 139.622 60.0578 139.933 60.4872C140.245 60.9167 140.373 61.4522 140.289 61.976L139.502 66.912C138.318 74.334 129.21 77.272 123.913 71.94C120.75 68.757 115.311 70.82 115.055 75.3L114.73 81.001C114.7 81.5306 114.46 82.0266 114.064 82.3797C113.669 82.7328 113.149 82.9142 112.619 82.884C112.089 82.8538 111.593 82.6144 111.24 82.2185C110.887 81.8226 110.706 81.3026 110.736 80.773L111.062 75.072C111.514 67.137 121.148 63.482 126.75 69.12C129.741 72.13 134.884 70.471 135.552 66.281L136.339 61.345C136.423 60.8212 136.711 60.3521 137.14 60.0407C137.57 59.7294 138.105 59.6025 138.629 59.686ZM268.383 211.593C264.731 208.985 259.715 211.931 260.214 216.391C261.05 223.86 253.054 229.118 246.528 225.39L242.188 222.911C241.734 222.645 241.403 222.21 241.267 221.701C241.131 221.193 241.202 220.651 241.463 220.194C241.724 219.736 242.155 219.401 242.662 219.259C243.169 219.118 243.712 219.182 244.172 219.438L248.512 221.917C252.196 224.021 256.711 221.053 256.239 216.836C255.355 208.937 264.239 203.719 270.708 208.338L275.355 211.656C275.569 211.809 275.75 212.002 275.89 212.225C276.029 212.448 276.122 212.696 276.166 212.955C276.209 213.214 276.201 213.479 276.141 213.735C276.082 213.991 275.973 214.233 275.82 214.447C275.668 214.66 275.475 214.842 275.252 214.981C275.029 215.12 274.781 215.214 274.522 215.257C274.263 215.3 273.997 215.292 273.741 215.233C273.486 215.174 273.244 215.065 273.03 214.912L268.383 211.593ZM219.458 19.1C219.327 18.8725 219.242 18.6214 219.207 18.3609C219.173 18.1005 219.191 17.8359 219.259 17.5822C219.327 17.3285 219.444 17.0907 219.604 16.8824C219.764 16.674 219.963 16.4992 220.191 16.368L224.521 13.871C231.031 10.117 239.049 15.342 238.244 22.814C237.763 27.276 242.791 30.201 246.433 27.578L251.066 24.24C251.496 23.93 252.032 23.8036 252.556 23.8888C253.08 23.9739 253.548 24.2636 253.858 24.694C254.168 25.1245 254.294 25.6604 254.209 26.184C254.124 26.7076 253.834 27.176 253.404 27.486L248.771 30.824C242.321 35.47 233.415 30.288 234.267 22.385C234.722 18.166 230.194 15.216 226.519 17.336L222.189 19.833C221.73 20.0978 221.184 20.1693 220.672 20.0319C220.16 19.8944 219.723 19.5592 219.458 19.1ZM43.604 100.569C43.7762 101.071 43.7421 101.62 43.5092 102.097C43.2763 102.573 42.8636 102.938 42.362 103.11L37.635 104.733C33.622 106.111 32.871 111.462 36.35 113.891C42.867 118.442 40.921 128.56 33.181 130.369L27.621 131.669C27.1061 131.785 26.5661 131.693 26.1187 131.413C25.6714 131.133 25.3529 130.687 25.2328 130.173C25.1127 129.659 25.2007 129.118 25.4776 128.669C25.7545 128.22 26.1979 127.898 26.711 127.774L32.272 126.474C36.642 125.453 37.74 119.74 34.061 117.171C27.899 112.868 29.229 103.391 36.337 100.95L41.064 99.327C41.5657 99.1548 42.1152 99.1889 42.5917 99.4218C43.0682 99.6547 43.4317 100.067 43.604 100.569ZM77.095 204.2C77.1065 203.67 77.3283 203.166 77.7114 202.799C78.0945 202.432 78.6077 202.232 79.138 202.244L84.135 202.352C91.649 202.514 95.799 211.138 91.238 217.112C88.515 220.678 91.299 225.786 95.773 225.43L101.466 224.976C101.728 224.955 101.991 224.986 102.241 225.067C102.491 225.148 102.723 225.278 102.922 225.448C103.122 225.618 103.287 225.827 103.406 226.061C103.525 226.294 103.598 226.55 103.618 226.811C103.639 227.073 103.608 227.337 103.527 227.587C103.446 227.837 103.317 228.068 103.147 228.268C102.976 228.468 102.768 228.632 102.534 228.752C102.3 228.871 102.045 228.943 101.783 228.964L96.091 229.417C88.168 230.048 83.236 221.002 88.06 214.684C90.635 211.312 88.292 206.443 84.05 206.351L79.053 206.243C78.5227 206.231 78.0187 206.01 77.6519 205.627C77.2851 205.243 77.0855 204.73 77.097 204.2H77.095ZM62.324 139.626L61.544 138.771L61.673 139.921C61.8613 141.6 61.5133 143.295 60.6789 144.764C59.8444 146.233 58.5664 147.4 57.028 148.098L55.974 148.576L57.108 148.809C58.7629 149.149 60.2677 150.004 61.4067 151.251C62.5458 152.499 63.2607 154.075 63.449 155.754L63.578 156.904L64.15 155.898C64.9845 154.429 66.2627 153.262 67.8013 152.564C69.3399 151.866 71.06 151.673 72.715 152.013L73.849 152.245L73.069 151.391C71.9298 150.143 71.2149 148.567 71.0266 146.888C70.8384 145.209 71.1865 143.514 72.021 142.045L72.593 141.039L71.539 141.517C70.0005 142.215 68.2806 142.408 66.6258 142.068C64.971 141.728 63.4662 140.873 62.327 139.626H62.324ZM54.321 144.934C50.792 146.534 51.373 151.715 55.169 152.495L56.303 152.727C57.1306 152.897 57.8832 153.324 58.4528 153.948C59.0225 154.572 59.3799 155.36 59.474 156.2L59.603 157.35C60.035 161.2 65.142 162.249 67.056 158.88L67.628 157.873C68.0453 157.139 68.6843 156.555 69.4535 156.206C70.2227 155.858 71.0826 155.761 71.91 155.931L73.044 156.164C76.84 156.943 79.415 152.41 76.802 149.548L76.022 148.694C75.4524 148.07 75.0949 147.282 75.0008 146.443C74.9067 145.603 75.0807 144.755 75.498 144.021L76.07 143.014C77.984 139.645 74.468 135.795 70.94 137.396L69.886 137.874C69.1167 138.223 68.2567 138.319 67.4293 138.149C66.6019 137.979 65.8495 137.552 65.28 136.928L64.5 136.074C61.887 133.212 57.139 135.366 57.571 139.217L57.7 140.367C57.7942 141.207 57.6202 142.054 57.2029 142.789C56.7856 143.524 56.1464 144.107 55.377 144.456L54.323 144.934H54.321ZM110.956 31.42L112.75 29.806L110.35 30.057C108.67 30.2327 106.977 29.8718 105.514 29.0263C104.052 28.1807 102.894 26.8938 102.208 25.35L101.228 23.145L100.725 25.505C100.373 27.1574 99.5065 28.6559 98.2503 29.7857C96.994 30.9154 95.4124 31.6185 93.732 31.794L91.332 32.045L93.421 33.253C94.8836 34.0986 96.041 35.3856 96.7272 36.9294C97.4134 38.4732 97.5933 40.1947 97.241 41.847L96.738 44.207L98.532 42.593C99.7882 41.4635 101.37 40.7607 103.05 40.5852C104.73 40.4096 106.423 40.7705 107.885 41.616L109.974 42.824L108.994 40.619C108.308 39.0752 108.128 37.3537 108.48 35.7014C108.832 34.0491 109.699 32.5507 110.955 31.421L110.956 31.42ZM115.425 32.78C118.306 30.189 116.189 25.425 112.335 25.828L109.934 26.079C109.094 26.1668 108.247 25.9863 107.516 25.5634C106.785 25.1406 106.206 24.497 105.863 23.725L104.883 21.52C103.309 17.979 98.124 18.521 97.316 22.311L96.813 24.671C96.6368 25.497 96.2037 26.2461 95.5757 26.8109C94.9477 27.3757 94.157 27.7272 93.317 27.815L90.917 28.066C87.063 28.469 85.976 33.568 89.331 35.507L91.42 36.715C92.1513 37.1378 92.73 37.7813 93.0731 38.5532C93.4162 39.3251 93.5061 40.1858 93.33 41.012L92.827 43.372C92.019 47.162 96.533 49.771 99.414 47.18L101.208 45.566C101.836 45.0011 102.627 44.6495 103.467 44.5616C104.307 44.4738 105.154 44.6542 105.885 45.077L107.974 46.285C111.329 48.224 115.206 44.738 113.632 41.197L112.651 38.992C112.308 38.22 112.218 37.3593 112.394 36.5331C112.571 35.707 113.004 34.9578 113.632 34.393L115.426 32.779L115.425 32.78ZM220.272 64.453L221.009 60.246L217.94 63.216C216.726 64.3912 215.171 65.1518 213.498 65.3889C211.826 65.6261 210.121 65.3275 208.628 64.536L204.855 62.535L206.732 66.371C207.474 67.8887 207.717 69.6025 207.426 71.2667C207.134 72.9309 206.323 74.4601 205.109 75.635L202.041 78.605L206.269 78.006C207.942 77.7689 209.647 78.0676 211.139 78.8591C212.632 79.6506 213.836 80.8943 214.578 82.412L216.454 86.249L217.191 82.042C217.482 80.3778 218.293 78.8486 219.507 77.6735C220.721 76.4985 222.276 75.738 223.949 75.501L228.177 74.902L224.404 72.901C222.911 72.1095 221.708 70.8659 220.966 69.3483C220.223 67.8307 219.981 66.1171 220.272 64.453ZM224.949 60.936C225.617 57.119 221.011 54.677 218.227 57.372L215.158 60.342C214.551 60.9296 213.774 61.3099 212.937 61.4285C212.101 61.547 211.248 61.3977 210.502 61.002L206.729 59.001C203.306 57.186 199.559 60.812 201.262 64.293L203.139 68.129C203.51 68.8879 203.631 69.7448 203.486 70.5769C203.34 71.409 202.934 72.1736 202.327 72.761L199.259 75.731C196.474 78.426 198.765 83.109 202.602 82.566L206.83 81.967C207.666 81.8484 208.519 81.9976 209.265 82.3934C210.012 82.7891 210.614 83.4111 210.985 84.17L212.861 88.006C214.564 91.487 219.726 90.756 220.394 86.939L221.131 82.732C221.277 81.9 221.682 81.1355 222.289 80.5481C222.896 79.9607 223.674 79.5805 224.51 79.462L228.739 78.863C232.575 78.319 233.475 73.184 230.051 71.369L226.278 69.368C225.532 68.9723 224.93 68.3504 224.559 67.5916C224.188 66.8328 224.066 65.976 224.212 65.144L224.949 60.936ZM167.501 264.54L169.089 263.627L167.268 263.432C165.588 263.252 164.009 262.545 162.755 261.412C161.502 260.279 160.64 258.778 160.292 257.125L159.915 255.332L159.167 257.004C158.477 258.546 157.316 259.83 155.851 260.671C154.386 261.513 152.692 261.869 151.012 261.689L149.191 261.494L150.549 262.722C151.802 263.855 152.664 265.356 153.012 267.009C153.36 268.662 153.175 270.383 152.485 271.925L151.737 273.597L153.325 272.685C154.79 271.843 156.483 271.487 158.163 271.667C159.843 271.847 161.423 272.554 162.676 273.687L164.035 274.916L163.658 273.123C163.31 271.47 163.495 269.749 164.185 268.207C164.876 266.665 166.036 265.382 167.501 264.54ZM171.082 267.096C174.442 265.165 173.369 260.063 169.516 259.65L167.694 259.455C166.854 259.365 166.065 259.011 165.438 258.444C164.812 257.878 164.381 257.128 164.207 256.301L163.829 254.509C163.032 250.717 157.848 250.161 156.264 253.697L155.516 255.369C155.171 256.14 154.591 256.782 153.858 257.203C153.126 257.624 152.279 257.802 151.439 257.712L149.617 257.517C145.764 257.103 143.634 261.862 146.508 264.461L147.867 265.689C148.494 266.256 148.925 267.006 149.099 267.833C149.273 268.659 149.18 269.52 148.835 270.291L148.086 271.963C146.503 275.499 150.37 278.996 153.73 277.066L155.318 276.153C156.05 275.732 156.897 275.554 157.737 275.644C158.577 275.734 159.366 276.088 159.993 276.654L161.352 277.883C164.226 280.482 168.747 277.884 167.949 274.093L167.572 272.3C167.398 271.473 167.49 270.613 167.836 269.842C168.181 269.071 168.761 268.429 169.494 268.008L171.082 267.096ZM294.439 172.988L296.269 172.908L294.741 171.897C293.332 170.965 292.254 169.611 291.661 168.029C291.069 166.447 290.992 164.718 291.443 163.09L291.932 161.325L290.499 162.466C289.177 163.518 287.556 164.125 285.869 164.199C284.181 164.274 282.513 163.812 281.104 162.88L279.576 161.87L280.218 163.585C280.81 165.167 280.887 166.896 280.436 168.525C279.985 170.153 279.031 171.597 277.709 172.649L276.276 173.79L278.106 173.709C281.568 173.556 284.735 175.651 285.951 178.896L286.593 180.612L287.082 178.846C287.533 177.218 288.487 175.774 289.809 174.722C291.13 173.669 292.751 173.063 294.439 172.988ZM296.445 176.904C300.317 176.733 301.707 171.708 298.475 169.571L296.947 168.561C296.242 168.095 295.703 167.418 295.407 166.627C295.111 165.836 295.073 164.971 295.298 164.157L295.787 162.392C296.821 158.657 292.472 155.782 289.441 158.195L288.008 159.336C287.347 159.862 286.537 160.166 285.693 160.203C284.849 160.241 284.015 160.01 283.31 159.544L281.782 158.533C278.55 156.396 274.471 159.644 275.83 163.272L276.472 164.988C276.768 165.779 276.806 166.644 276.581 167.458C276.355 168.272 275.878 168.994 275.217 169.52L273.784 170.661C270.753 173.074 272.581 177.957 276.452 177.786L278.282 177.705C279.126 177.668 279.96 177.899 280.665 178.365C281.37 178.831 281.909 179.508 282.205 180.299L282.847 182.014C284.206 185.643 289.414 185.413 290.448 181.679L290.937 179.914C291.162 179.1 291.64 178.378 292.3 177.852C292.961 177.326 293.771 177.022 294.615 176.985L296.445 176.904Z" fill="url(#paint0_linear_1_3)"/>
<path d="M172 42C173.061 42 174.078 41.5786 174.828 40.8284C175.579 40.0783 176 39.0609 176 38C176 36.9391 175.579 35.9217 174.828 35.1716C174.078 34.4214 173.061 34 172 34C170.939 34 169.922 34.4214 169.172 35.1716C168.421 35.9217 168 36.9391 168 38C168 39.0609 168.421 40.0783 169.172 40.8284C169.922 41.5786 170.939 42 172 42ZM172 46C174.122 46 176.157 45.1571 177.657 43.6569C179.157 42.1566 180 40.1217 180 38C180 35.8783 179.157 33.8434 177.657 32.3431C176.157 30.8429 174.122 30 172 30C169.878 30 167.843 30.8429 166.343 32.3431C164.843 33.8434 164 35.8783 164 38C164 40.1217 164.843 42.1566 166.343 43.6569C167.843 45.1571 169.878 46 172 46Z" fill="#FF9900"/>
<path d="M275 72C276.061 72 277.078 71.5786 277.828 70.8284C278.579 70.0783 279 69.0609 279 68C279 66.9391 278.579 65.9217 277.828 65.1716C277.078 64.4214 276.061 64 275 64C273.939 64 272.922 64.4214 272.172 65.1716C271.421 65.9217 271 66.9391 271 68C271 69.0609 271.421 70.0783 272.172 70.8284C272.922 71.5786 273.939 72 275 72ZM275 76C277.122 76 279.157 75.1571 280.657 73.6569C282.157 72.1566 283 70.1217 283 68C283 65.8783 282.157 63.8434 280.657 62.3431C279.157 60.8429 277.122 60 275 60C272.878 60 270.843 60.8429 269.343 62.3431C267.843 63.8434 267 65.8783 267 68C267 70.1217 267.843 72.1566 269.343 73.6569C270.843 75.1571 272.878 76 275 76Z" fill="#34FFCE"/>
<path d="M138 231C139.061 231 140.078 230.579 140.828 229.828C141.579 229.078 142 228.061 142 227C142 225.939 141.579 224.922 140.828 224.172C140.078 223.421 139.061 223 138 223C136.939 223 135.922 223.421 135.172 224.172C134.421 224.922 134 225.939 134 227C134 228.061 134.421 229.078 135.172 229.828C135.922 230.579 136.939 231 138 231ZM138 235C140.122 235 142.157 234.157 143.657 232.657C145.157 231.157 146 229.122 146 227C146 224.878 145.157 222.843 143.657 221.343C142.157 219.843 140.122 219 138 219C135.878 219 133.843 219.843 132.343 221.343C130.843 222.843 130 224.878 130 227C130 229.122 130.843 231.157 132.343 232.657C133.843 234.157 135.878 235 138 235Z" fill="#ABD7FF"/>
<path d="M236 168C237.061 168 238.078 167.579 238.828 166.828C239.579 166.078 240 165.061 240 164C240 162.939 239.579 161.922 238.828 161.172C238.078 160.421 237.061 160 236 160C234.939 160 233.922 160.421 233.172 161.172C232.421 161.922 232 162.939 232 164C232 165.061 232.421 166.078 233.172 166.828C233.922 167.579 234.939 168 236 168ZM236 172C238.122 172 240.157 171.157 241.657 169.657C243.157 168.157 244 166.122 244 164C244 161.878 243.157 159.843 241.657 158.343C240.157 156.843 238.122 156 236 156C233.878 156 231.843 156.843 230.343 158.343C228.843 159.843 228 161.878 228 164C228 166.122 228.843 168.157 230.343 169.657C231.843 171.157 233.878 172 236 172Z" fill="#FFE609"/>
<path d="M44 40C45.0609 40 46.0783 39.5786 46.8284 38.8284C47.5786 38.0783 48 37.0609 48 36C48 34.9391 47.5786 33.9217 46.8284 33.1716C46.0783 32.4214 45.0609 32 44 32C42.9391 32 41.9217 32.4214 41.1716 33.1716C40.4214 33.9217 40 34.9391 40 36C40 37.0609 40.4214 38.0783 41.1716 38.8284C41.9217 39.5786 42.9391 40 44 40ZM44 44C46.1217 44 48.1566 43.1571 49.6569 41.6569C51.1572 40.1566 52 38.1217 52 36C52 33.8783 51.1572 31.8434 49.6569 30.3431C48.1566 28.8429 46.1217 28 44 28C41.8783 28 39.8434 28.8429 38.3431 30.3431C36.8428 31.8434 36 33.8783 36 36C36 38.1217 36.8428 40.1566 38.3431 41.6569C39.8434 43.1571 41.8783 44 44 44Z" fill="#E64BC3"/>
<path d="M44 203C45.0609 203 46.0783 202.579 46.8284 201.828C47.5786 201.078 48 200.061 48 199C48 197.939 47.5786 196.922 46.8284 196.172C46.0783 195.421 45.0609 195 44 195C42.9391 195 41.9217 195.421 41.1716 196.172C40.4214 196.922 40 197.939 40 199C40 200.061 40.4214 201.078 41.1716 201.828C41.9217 202.579 42.9391 203 44 203ZM44 207C46.1217 207 48.1566 206.157 49.6569 204.657C51.1572 203.157 52 201.122 52 199C52 196.878 51.1572 194.843 49.6569 193.343C48.1566 191.843 46.1217 191 44 191C41.8783 191 39.8434 191.843 38.3431 193.343C36.8428 194.843 36 196.878 36 199C36 201.122 36.8428 203.157 38.3431 204.657C39.8434 206.157 41.8783 207 44 207Z" fill="#7D34F4"/>
<path d="M243 261C244.061 261 245.078 260.579 245.828 259.828C246.579 259.078 247 258.061 247 257C247 255.939 246.579 254.922 245.828 254.172C245.078 253.421 244.061 253 243 253C241.939 253 240.922 253.421 240.172 254.172C239.421 254.922 239 255.939 239 257C239 258.061 239.421 259.078 240.172 259.828C240.922 260.579 241.939 261 243 261ZM243 265C245.122 265 247.157 264.157 248.657 262.657C250.157 261.157 251 259.122 251 257C251 254.878 250.157 252.843 248.657 251.343C247.157 249.843 245.122 249 243 249C240.878 249 238.843 249.843 237.343 251.343C235.843 252.843 235 254.878 235 257C235 259.122 235.843 261.157 237.343 262.657C238.843 264.157 240.878 265 243 265Z" fill="#FF41B3"/>
<path opacity="0.2" d="M204.469 124.109H180.45C182.688 123.12 184.767 121.804 186.617 120.203C187.901 119.062 188.934 117.668 189.654 116.108C190.374 114.548 190.762 112.858 190.797 111.141C190.852 109.238 190.518 107.344 189.815 105.575C189.113 103.806 188.056 102.199 186.71 100.853C185.364 99.507 183.757 98.45 181.988 97.747C180.219 97.0439 178.325 96.7101 176.422 96.766C174.705 96.801 173.014 97.19 171.454 97.909C169.895 98.6285 168.501 99.662 167.359 100.945C164.474 104.202 162.657 108.445 161.5 112.513C160.353 108.445 158.536 104.212 155.641 100.945C154.499 99.662 153.105 98.6285 151.546 97.909C149.986 97.19 148.295 96.801 146.578 96.766C144.675 96.7101 142.781 97.0439 141.012 97.747C139.243 98.45 137.636 99.507 136.29 100.853C134.944 102.199 133.887 103.806 133.185 105.575C132.482 107.344 132.148 109.238 132.203 111.141C132.238 112.858 132.627 114.549 133.346 116.108C134.065 117.667 135.099 119.062 136.383 120.203C138.233 121.804 140.312 123.12 142.55 124.109H118.531C116.977 124.109 115.487 124.727 114.388 125.826C113.289 126.924 112.672 128.415 112.672 129.969V145.594C112.672 147.148 113.29 148.638 114.388 149.737C115.487 150.835 116.977 151.453 118.531 151.453H120.484V184.656C120.484 185.426 120.636 186.188 120.93 186.899C121.225 187.61 121.656 188.256 122.2 188.8C122.745 189.344 123.391 189.775 124.101 190.07C124.812 190.364 125.574 190.516 126.344 190.516H196.656C197.426 190.516 198.188 190.364 198.899 190.07C199.609 189.775 200.256 189.344 200.8 188.8C201.344 188.256 201.775 187.61 202.07 186.899C202.364 186.188 202.516 185.426 202.516 184.656V151.453H204.469C206.023 151.453 207.513 150.835 208.612 149.737C209.71 148.638 210.328 147.148 210.328 145.594V129.969C210.328 128.415 209.711 126.924 208.612 125.826C207.513 124.727 206.023 124.109 204.469 124.109ZM170.289 103.533C171.078 102.652 172.04 101.943 173.116 101.451C174.191 100.959 175.356 100.693 176.539 100.672H176.837C178.182 100.673 179.513 100.944 180.752 101.469C181.991 101.994 183.112 102.761 184.049 103.726C184.986 104.691 185.72 105.833 186.208 107.087C186.696 108.34 186.928 109.679 186.891 111.023C186.869 112.206 186.604 113.372 186.112 114.447C185.62 115.522 184.911 116.485 184.029 117.273C178.126 122.498 167.882 123.724 163.521 124.007C163.824 119.681 165.045 109.461 170.289 103.533ZM136.109 111.023C136.072 109.679 136.304 108.34 136.792 107.087C137.28 105.833 138.014 104.691 138.951 103.726C139.888 102.761 141.009 101.993 142.248 101.469C143.487 100.945 144.818 100.673 146.163 100.672H146.461C147.644 100.693 148.809 100.959 149.884 101.451C150.96 101.943 151.922 102.652 152.711 103.533C157.94 109.437 159.161 119.681 159.444 124.041C155.104 123.758 144.859 122.532 138.937 117.308C138.057 116.512 137.352 115.543 136.866 114.461C136.379 113.379 136.122 112.209 136.109 111.023ZM116.578 145.594V129.969C116.578 129.451 116.784 128.954 117.15 128.588C117.331 128.407 117.547 128.263 117.784 128.164C118.02 128.066 118.275 128.016 118.531 128.016H159.547V147.547H118.531C118.013 147.547 117.516 147.341 117.15 146.975C116.784 146.609 116.578 146.112 116.578 145.594ZM124.391 184.656V151.453H159.547V186.609H126.344C126.087 186.609 125.833 186.559 125.596 186.461C125.359 186.363 125.144 186.219 124.962 186.038C124.781 185.856 124.637 185.641 124.539 185.404C124.441 185.167 124.391 184.913 124.391 184.656ZM198.609 184.656C198.609 184.913 198.559 185.167 198.461 185.404C198.363 185.641 198.219 185.856 198.038 186.038C197.856 186.219 197.641 186.363 197.404 186.461C197.167 186.559 196.913 186.609 196.656 186.609H163.453V151.453H198.609V184.656ZM206.422 145.594C206.422 146.112 206.216 146.609 205.85 146.975C205.484 147.341 204.987 147.547 204.469 147.547H163.453V128.016H204.469C204.725 128.016 204.98 128.066 205.216 128.164C205.453 128.263 205.669 128.407 205.85 128.588C206.216 128.954 206.422 129.451 206.422 129.969V145.594Z" fill="black"/>
<path d="M201.469 122.109H177.45C179.688 121.12 181.767 119.804 183.617 118.203C184.901 117.062 185.934 115.668 186.654 114.108C187.374 112.548 187.762 110.858 187.797 109.141C187.852 107.238 187.518 105.344 186.815 103.575C186.113 101.806 185.056 100.199 183.71 98.853C182.364 97.507 180.757 96.45 178.988 95.747C177.219 95.0439 175.325 94.7101 173.422 94.766C171.705 94.801 170.014 95.19 168.454 95.909C166.895 96.6285 165.501 97.662 164.359 98.945C161.474 102.202 159.657 106.445 158.5 110.513C157.353 106.445 155.536 102.212 152.641 98.945C151.499 97.662 150.105 96.6285 148.546 95.909C146.986 95.19 145.295 94.801 143.578 94.766C141.675 94.7101 139.781 95.0439 138.012 95.747C136.243 96.45 134.636 97.507 133.29 98.853C131.944 100.199 130.887 101.806 130.185 103.575C129.482 105.344 129.148 107.238 129.203 109.141C129.238 110.858 129.627 112.549 130.346 114.108C131.065 115.667 132.099 117.062 133.383 118.203C135.233 119.804 137.312 121.12 139.55 122.109H115.531C113.977 122.109 112.487 122.727 111.388 123.826C110.289 124.924 109.672 126.415 109.672 127.969V143.594C109.672 145.148 110.29 146.638 111.388 147.737C112.487 148.835 113.977 149.453 115.531 149.453H117.484V182.656C117.484 183.426 117.636 184.188 117.93 184.899C118.225 185.61 118.656 186.256 119.2 186.8C119.745 187.344 120.391 187.775 121.101 188.07C121.812 188.364 122.574 188.516 123.344 188.516H193.656C194.426 188.516 195.188 188.364 195.899 188.07C196.609 187.775 197.256 187.344 197.8 186.8C198.344 186.256 198.775 185.61 199.07 184.899C199.364 184.188 199.516 183.426 199.516 182.656V149.453H201.469C203.023 149.453 204.513 148.835 205.612 147.737C206.71 146.638 207.328 145.148 207.328 143.594V127.969C207.328 126.415 206.711 124.924 205.612 123.826C204.513 122.727 203.023 122.109 201.469 122.109ZM167.289 101.533C168.078 100.652 169.04 99.9432 170.116 99.4509C171.191 98.9587 172.356 98.6935 173.539 98.672H173.837C175.182 98.673 176.513 98.944 177.752 99.469C178.991 99.994 180.112 100.761 181.049 101.726C181.986 102.691 182.72 103.833 183.208 105.087C183.696 106.34 183.928 107.679 183.891 109.023C183.869 110.206 183.604 111.372 183.112 112.447C182.62 113.522 181.911 114.485 181.029 115.273C175.126 120.498 164.882 121.724 160.521 122.007C160.824 117.681 162.045 107.461 167.289 101.533ZM133.109 109.023C133.072 107.679 133.304 106.34 133.792 105.087C134.28 103.833 135.014 102.691 135.951 101.726C136.888 100.761 138.009 99.993 139.248 99.469C140.487 98.945 141.818 98.673 143.163 98.672H143.461C144.644 98.6935 145.809 98.9587 146.884 99.4509C147.96 99.9432 148.922 100.652 149.711 101.533C154.94 107.437 156.161 117.681 156.444 122.041C152.104 121.758 141.859 120.532 135.937 115.308C135.057 114.512 134.352 113.543 133.866 112.461C133.379 111.379 133.122 110.209 133.109 109.023ZM113.578 143.594V127.969C113.578 127.451 113.784 126.954 114.15 126.588C114.331 126.407 114.547 126.263 114.784 126.164C115.02 126.066 115.275 126.016 115.531 126.016H156.547V145.547H115.531C115.013 145.547 114.516 145.341 114.15 144.975C113.784 144.609 113.578 144.112 113.578 143.594ZM121.391 182.656V149.453H156.547V184.609H123.344C123.087 184.609 122.833 184.559 122.596 184.461C122.359 184.363 122.144 184.219 121.962 184.038C121.781 183.856 121.637 183.641 121.539 183.404C121.441 183.167 121.391 182.913 121.391 182.656ZM195.609 182.656C195.609 182.913 195.559 183.167 195.461 183.404C195.363 183.641 195.219 183.856 195.038 184.038C194.856 184.219 194.641 184.363 194.404 184.461C194.167 184.559 193.913 184.609 193.656 184.609H160.453V149.453H195.609V182.656ZM203.422 143.594C203.422 144.112 203.216 144.609 202.85 144.975C202.484 145.341 201.987 145.547 201.469 145.547H160.453V126.016H201.469C201.725 126.016 201.98 126.066 202.216 126.164C202.453 126.263 202.669 126.407 202.85 126.588C203.216 126.954 203.422 127.451 203.422 127.969V143.594Z" fill="url(#paint1_linear_1_3)"/>
<path d="M72.902 305.19C71.3187 305.19 70.0457 304.987 69.083 304.582V302.758C69.6277 302.961 70.2103 303.125 70.831 303.252C71.4643 303.379 72.0913 303.442 72.712 303.442C73.6873 303.442 74.4157 303.328 74.897 303.1C75.391 302.872 75.638 302.416 75.638 301.732C75.638 301.314 75.5367 300.978 75.334 300.725C75.1313 300.472 74.7957 300.256 74.327 300.079C73.8583 299.889 73.2123 299.693 72.389 299.49C71.0717 299.148 70.147 298.717 69.615 298.198C69.083 297.666 68.817 296.938 68.817 296.013C68.817 294.936 69.2097 294.094 69.995 293.486C70.7803 292.878 71.952 292.574 73.51 292.574C74.2193 292.574 74.8843 292.625 75.505 292.726C76.1383 292.827 76.6323 292.941 76.987 293.068V294.892C76.0243 294.525 74.9603 294.341 73.795 294.341C72.883 294.341 72.1737 294.461 71.667 294.702C71.1603 294.943 70.907 295.38 70.907 296.013C70.907 296.38 70.9957 296.678 71.173 296.906C71.3503 297.134 71.6543 297.33 72.085 297.495C72.5283 297.66 73.1363 297.843 73.909 298.046C74.9097 298.299 75.6823 298.603 76.227 298.958C76.7843 299.3 77.1707 299.705 77.386 300.174C77.614 300.63 77.728 301.149 77.728 301.732C77.728 302.809 77.329 303.657 76.531 304.278C75.733 304.886 74.5233 305.19 72.902 305.19ZM84.1631 305.19C82.5797 305.19 81.3827 304.791 80.5721 303.993C79.7614 303.182 79.3561 302.017 79.3561 300.497C79.3561 298.914 79.7994 297.736 80.6861 296.963C81.5854 296.19 82.7824 295.804 84.2771 295.804C84.8977 295.804 85.4171 295.848 85.8351 295.937C86.2657 296.026 86.6774 296.165 87.0701 296.355V297.894C86.4114 297.565 85.6134 297.4 84.6761 297.4C83.6374 297.4 82.8394 297.634 82.2821 298.103C81.7247 298.559 81.4461 299.357 81.4461 300.497C81.4461 301.574 81.6931 302.365 82.1871 302.872C82.6811 303.366 83.4981 303.613 84.6381 303.613C85.5374 303.613 86.3544 303.442 87.0891 303.1V304.677C86.6711 304.842 86.2214 304.968 85.7401 305.057C85.2714 305.146 84.7457 305.19 84.1631 305.19ZM88.7351 305V295.994H90.6351L90.7491 297.039C91.1798 296.76 91.6928 296.507 92.2881 296.279C92.8834 296.051 93.4724 295.893 94.0551 295.804V297.381C93.7004 297.444 93.3141 297.539 92.8961 297.666C92.4908 297.78 92.1044 297.913 91.7371 298.065C91.3698 298.204 91.0594 298.35 90.8061 298.502V305H88.7351ZM97.8 305.19C97.23 305.19 96.698 305.089 96.204 304.886C95.7227 304.683 95.3363 304.379 95.045 303.974C94.7537 303.556 94.608 303.043 94.608 302.435C94.608 301.574 94.8993 300.883 95.482 300.364C96.0773 299.832 96.9893 299.566 98.218 299.566H101.106V299.167C101.106 298.736 101.036 298.394 100.897 298.141C100.77 297.888 100.53 297.704 100.175 297.59C99.833 297.476 99.3263 297.419 98.655 297.419C97.591 297.419 96.5967 297.577 95.672 297.894V296.355C96.0773 296.19 96.5713 296.057 97.154 295.956C97.7367 295.855 98.3637 295.804 99.035 295.804C100.352 295.804 101.353 296.07 102.037 296.602C102.734 297.134 103.082 298.002 103.082 299.205V305H101.315L101.182 304.088C100.815 304.443 100.359 304.715 99.814 304.905C99.282 305.095 98.6107 305.19 97.8 305.19ZM98.351 303.708C98.9717 303.708 99.51 303.607 99.966 303.404C100.435 303.189 100.815 302.904 101.106 302.549V300.972H98.256C97.648 300.972 97.2047 301.092 96.926 301.333C96.66 301.561 96.527 301.916 96.527 302.397C96.527 302.866 96.6853 303.201 97.002 303.404C97.3187 303.607 97.7683 303.708 98.351 303.708ZM108.818 305.19C107.855 305.19 107.133 304.937 106.652 304.43C106.183 303.911 105.949 303.208 105.949 302.321V297.609H104.619V295.994H105.949V293.923L108.001 293.296V295.994H110.395L110.262 297.609H108.001V302.207C108.001 302.726 108.121 303.094 108.362 303.309C108.602 303.512 108.995 303.613 109.54 303.613C109.882 303.613 110.243 303.55 110.623 303.423V304.886C110.129 305.089 109.527 305.19 108.818 305.19ZM116.634 305.19C115.05 305.19 113.853 304.791 113.043 303.993C112.232 303.182 111.827 302.017 111.827 300.497C111.827 298.914 112.27 297.736 113.157 296.963C114.056 296.19 115.253 295.804 116.748 295.804C117.368 295.804 117.888 295.848 118.306 295.937C118.736 296.026 119.148 296.165 119.541 296.355V297.894C118.882 297.565 118.084 297.4 117.147 297.4C116.108 297.4 115.31 297.634 114.753 298.103C114.195 298.559 113.917 299.357 113.917 300.497C113.917 301.574 114.164 302.365 114.658 302.872C115.152 303.366 115.969 303.613 117.109 303.613C118.008 303.613 118.825 303.442 119.56 303.1V304.677C119.142 304.842 118.692 304.968 118.211 305.057C117.742 305.146 117.216 305.19 116.634 305.19ZM121.206 305V292.194H123.277V296.868C123.669 296.551 124.138 296.298 124.683 296.108C125.227 295.905 125.842 295.804 126.526 295.804C127.666 295.804 128.508 296.076 129.053 296.621C129.597 297.166 129.87 298.014 129.87 299.167V305H127.818V299.262C127.818 298.565 127.666 298.078 127.362 297.799C127.07 297.52 126.557 297.381 125.823 297.381C125.367 297.381 124.904 297.482 124.436 297.685C123.967 297.875 123.581 298.128 123.277 298.445V305H121.206ZM137.12 305V297.609H135.809V295.994H137.12V294.892C137.12 293.993 137.367 293.271 137.861 292.726C138.368 292.169 139.115 291.89 140.103 291.89C140.47 291.89 140.806 291.922 141.11 291.985C141.414 292.036 141.693 292.112 141.946 292.213V293.695C141.553 293.556 141.154 293.486 140.749 293.486C140.154 293.486 139.742 293.594 139.514 293.809C139.286 294.024 139.172 294.392 139.172 294.911V295.994H141.528L141.433 297.609H139.172V305H137.12ZM147.061 305.19C145.439 305.19 144.249 304.785 143.489 303.974C142.741 303.163 142.368 302.004 142.368 300.497C142.368 298.99 142.748 297.831 143.508 297.02C144.268 296.209 145.452 295.804 147.061 295.804C148.682 295.804 149.873 296.209 150.633 297.02C151.393 297.831 151.773 298.99 151.773 300.497C151.773 302.004 151.393 303.163 150.633 303.974C149.885 304.785 148.695 305.19 147.061 305.19ZM147.061 303.442C148.011 303.442 148.682 303.214 149.075 302.758C149.48 302.289 149.683 301.536 149.683 300.497C149.683 299.458 149.48 298.711 149.075 298.255C148.682 297.799 148.011 297.571 147.061 297.571C146.123 297.571 145.452 297.799 145.047 298.255C144.654 298.711 144.458 299.458 144.458 300.497C144.458 301.536 144.654 302.289 145.047 302.758C145.452 303.214 146.123 303.442 147.061 303.442ZM153.788 305V295.994H155.688L155.802 297.039C156.232 296.76 156.745 296.507 157.341 296.279C157.936 296.051 158.525 295.893 159.108 295.804V297.381C158.753 297.444 158.367 297.539 157.949 297.666C157.543 297.78 157.157 297.913 156.79 298.065C156.422 298.204 156.112 298.35 155.859 298.502V305H153.788ZM167.807 305.19C167.237 305.19 166.705 305.089 166.211 304.886C165.73 304.683 165.343 304.379 165.052 303.974C164.761 303.556 164.615 303.043 164.615 302.435C164.615 301.574 164.906 300.883 165.489 300.364C166.084 299.832 166.996 299.566 168.225 299.566H171.113V299.167C171.113 298.736 171.043 298.394 170.904 298.141C170.777 297.888 170.537 297.704 170.182 297.59C169.84 297.476 169.333 297.419 168.662 297.419C167.598 297.419 166.604 297.577 165.679 297.894V296.355C166.084 296.19 166.578 296.057 167.161 295.956C167.744 295.855 168.371 295.804 169.042 295.804C170.359 295.804 171.36 296.07 172.044 296.602C172.741 297.134 173.089 298.002 173.089 299.205V305H171.322L171.189 304.088C170.822 304.443 170.366 304.715 169.821 304.905C169.289 305.095 168.618 305.19 167.807 305.19ZM168.358 303.708C168.979 303.708 169.517 303.607 169.973 303.404C170.442 303.189 170.822 302.904 171.113 302.549V300.972H168.263C167.655 300.972 167.212 301.092 166.933 301.333C166.667 301.561 166.534 301.916 166.534 302.397C166.534 302.866 166.692 303.201 167.009 303.404C167.326 303.607 167.775 303.708 168.358 303.708ZM182.766 305.19C182.146 305.19 181.55 305.146 180.98 305.057C180.423 304.968 179.961 304.861 179.593 304.734V302.986C180.024 303.151 180.499 303.277 181.018 303.366C181.538 303.455 182.032 303.499 182.5 303.499C183.21 303.499 183.716 303.436 184.02 303.309C184.324 303.182 184.476 302.935 184.476 302.568C184.476 302.302 184.381 302.093 184.191 301.941C184.014 301.789 183.742 301.65 183.374 301.523C183.02 301.396 182.564 301.244 182.006 301.067C181.474 300.89 181.012 300.7 180.619 300.497C180.227 300.282 179.923 300.009 179.707 299.68C179.492 299.351 179.384 298.92 179.384 298.388C179.384 297.565 179.682 296.931 180.277 296.488C180.873 296.032 181.829 295.804 183.146 295.804C183.666 295.804 184.16 295.842 184.628 295.918C185.097 295.994 185.496 296.089 185.825 296.203V297.932C185.471 297.793 185.078 297.685 184.647 297.609C184.229 297.533 183.837 297.495 183.469 297.495C182.811 297.495 182.31 297.552 181.968 297.666C181.639 297.78 181.474 298.008 181.474 298.35C181.474 298.705 181.645 298.958 181.987 299.11C182.342 299.249 182.906 299.446 183.678 299.699C184.388 299.914 184.951 300.142 185.369 300.383C185.787 300.624 186.085 300.915 186.262 301.257C186.452 301.586 186.547 302.017 186.547 302.549C186.547 303.436 186.224 304.101 185.578 304.544C184.932 304.975 183.995 305.19 182.766 305.19ZM191.827 305.19C190.75 305.19 189.921 304.892 189.338 304.297C188.768 303.702 188.483 302.828 188.483 301.675V295.994H190.554V301.675C190.554 302.346 190.719 302.84 191.048 303.157C191.377 303.474 191.884 303.632 192.568 303.632C193.075 303.632 193.543 303.537 193.974 303.347C194.405 303.157 194.778 302.904 195.095 302.587V295.994H197.147V305H195.266L195.171 304.069C194.766 304.386 194.284 304.652 193.727 304.867C193.17 305.082 192.536 305.19 191.827 305.19ZM199.562 305V295.994H201.462L201.576 297.039C202.007 296.76 202.52 296.507 203.115 296.279C203.711 296.051 204.3 295.893 204.882 295.804V297.381C204.528 297.444 204.141 297.539 203.723 297.666C203.318 297.78 202.932 297.913 202.564 298.065C202.197 298.204 201.887 298.35 201.633 298.502V305H199.562ZM206.39 309.104V295.994H208.176L208.29 296.887C208.696 296.52 209.139 296.247 209.62 296.07C210.102 295.893 210.672 295.804 211.33 295.804C212.622 295.804 213.629 296.159 214.351 296.868C215.073 297.565 215.434 298.724 215.434 300.345C215.434 301.966 215.061 303.182 214.313 303.993C213.566 304.791 212.546 305.19 211.254 305.19C210.165 305.19 209.234 304.937 208.461 304.43V309.104H206.39ZM210.722 303.632C212.47 303.632 213.344 302.53 213.344 300.326C213.344 299.262 213.148 298.508 212.755 298.065C212.363 297.609 211.704 297.381 210.779 297.381C209.855 297.381 209.082 297.698 208.461 298.331V302.834C208.753 303.075 209.076 303.271 209.43 303.423C209.798 303.562 210.228 303.632 210.722 303.632ZM217.449 305V295.994H219.349L219.463 297.039C219.894 296.76 220.407 296.507 221.002 296.279C221.597 296.051 222.186 295.893 222.769 295.804V297.381C222.414 297.444 222.028 297.539 221.61 297.666C221.205 297.78 220.818 297.913 220.451 298.065C220.084 298.204 219.773 298.35 219.52 298.502V305H217.449ZM225.037 294.113V292.403H227.298V294.113H225.037ZM225.208 305V297.571H223.84L224.03 295.994H227.279V305H225.208ZM232.697 305.19C232.076 305.19 231.481 305.146 230.911 305.057C230.354 304.968 229.891 304.861 229.524 304.734V302.986C229.955 303.151 230.43 303.277 230.949 303.366C231.468 303.455 231.962 303.499 232.431 303.499C233.14 303.499 233.647 303.436 233.951 303.309C234.255 303.182 234.407 302.935 234.407 302.568C234.407 302.302 234.312 302.093 234.122 301.941C233.945 301.789 233.672 301.65 233.305 301.523C232.95 301.396 232.494 301.244 231.937 301.067C231.405 300.89 230.943 300.7 230.55 300.497C230.157 300.282 229.853 300.009 229.638 299.68C229.423 299.351 229.315 298.92 229.315 298.388C229.315 297.565 229.613 296.931 230.208 296.488C230.803 296.032 231.76 295.804 233.077 295.804C233.596 295.804 234.09 295.842 234.559 295.918C235.028 295.994 235.427 296.089 235.756 296.203V297.932C235.401 297.793 235.009 297.685 234.578 297.609C234.16 297.533 233.767 297.495 233.4 297.495C232.741 297.495 232.241 297.552 231.899 297.666C231.57 297.78 231.405 298.008 231.405 298.35C231.405 298.705 231.576 298.958 231.918 299.11C232.273 299.249 232.836 299.446 233.609 299.699C234.318 299.914 234.882 300.142 235.3 300.383C235.718 300.624 236.016 300.915 236.193 301.257C236.383 301.586 236.478 302.017 236.478 302.549C236.478 303.436 236.155 304.101 235.509 304.544C234.863 304.975 233.926 305.19 232.697 305.19ZM242.79 305.19C241.22 305.19 240.004 304.804 239.142 304.031C238.281 303.258 237.85 302.074 237.85 300.478C237.85 299.034 238.218 297.894 238.952 297.058C239.687 296.222 240.802 295.804 242.296 295.804C243.664 295.804 244.69 296.165 245.374 296.887C246.071 297.596 246.419 298.515 246.419 299.642V301.314H239.826C239.928 302.188 240.244 302.79 240.776 303.119C241.308 303.448 242.119 303.613 243.208 303.613C243.664 303.613 244.133 303.569 244.614 303.48C245.096 303.391 245.514 303.277 245.868 303.138V304.658C245.463 304.835 244.994 304.968 244.462 305.057C243.943 305.146 243.386 305.19 242.79 305.19ZM239.826 299.965H244.595V299.338C244.595 298.717 244.424 298.236 244.082 297.894C243.74 297.539 243.164 297.362 242.353 297.362C241.391 297.362 240.726 297.571 240.358 297.989C240.004 298.407 239.826 299.066 239.826 299.965ZM248.245 301.941L248.131 295.823V292.764H250.202V295.823L250.088 301.941H248.245ZM248.055 305V303.442H250.259V305H248.055Z" fill="#757575"/>
<defs>
<linearGradient id="paint0_linear_1_3" x1="280" y1="127" x2="25" y2="127" gradientUnits="userSpaceOnUse">
<stop stop-color="#FFE76A"/>
<stop offset="0.239583" stop-color="#99FF88"/>
<stop offset="0.59375" stop-color="#72E6FF"/>
<stop offset="0.864583" stop-color="#E337FF"/>
</linearGradient>
<linearGradient id="paint1_linear_1_3" x1="158.5" y1="94.76" x2="158.5" y2="188.516" gradientUnits="userSpaceOnUse">
<stop stop-color="#FF1F8A"/>
<stop offset="1" stop-color="#B10000"/>
</linearGradient>
</defs>
</svg>
