<svg width="24" height="24" viewBox="0 0 24 24" fill="none" xmlns="http://www.w3.org/2000/svg">
<path d="M12.2 9.0002L10.2 7.0002H13C14.1 7.0002 15 7.9002 15 9.0002V11.8002L13 9.8002V9.0002H12.2ZM23 9.0002V7.0002H19C17.9 7.0002 17 7.9002 17 9.0002V11.0002C17 12.1002 17.9 13.0002 19 13.0002H21V15.0002H18.2L20.2 17.0002H21C22.1 17.0002 23 16.1002 23 15.0002V13.0002C23 11.9002 22.1 11.0002 21 11.0002H19V9.0002H23ZM22.1 21.5002L20.8 22.8002L14.4 16.4002C14.1 16.7002 13.6 17.0002 13 17.0002H9V10.9002L7 8.9002V17.0002H5V13.0002H3V17.0002H1V9.0002C1 7.9002 1.9 7.0002 3 7.0002H5.1L1.1 3.0002L2.4 1.7002L22.1 21.5002ZM5 9.0002H3V11.0002H5V9.0002ZM13 14.9002L11 12.9002V15.0002H13V14.9002Z" fill="black"/>
</svg>
