<svg width="490" height="378" viewBox="0 0 490 378" fill="none" xmlns="http://www.w3.org/2000/svg">
<path d="M365.635 375.776L11.0709 223.095C1.88227 218.893 -2.27072 208.124 1.71777 198.84L61.9798 58.5784C64.1813 53.4544 68.137 49.2978 73.1671 46.8896C84.8315 41.3052 107.271 30.7015 123.959 23.6684C141.801 16.1486 165.55 6.66083 178.231 1.63003C183.921 -0.627289 190.217 -0.543652 195.808 1.94722C245.974 24.2938 415.117 93.8167 479.291 124.496C488.349 128.826 492.182 139.552 488.071 148.711L390.336 366.478C386.11 375.895 375.022 380.069 365.635 375.776Z" fill="url(#paint0_linear_495_2501)"/>
<g filter="url(#filter0_d_495_2501)">
<path d="M61.6172 59.4198C67.1743 48.7868 80.0571 44.0462 91.2854 48.8074L127.615 64.2126C137.001 68.1929 147.843 63.8735 151.921 54.5287L169.038 15.3017C173.742 4.52048 185.645 -0.904024 196.668 2.22587C196.409 2.11499 196.149 2.00391 195.889 1.8926C190.262 -0.517509 183.921 -0.626245 178.231 1.63099C165.549 6.6617 141.8 16.1495 123.958 23.6692C106.037 31.2219 84.4135 41.4608 73.1184 46.892C68.115 49.2978 64.1863 53.4402 61.9948 58.541L61.6172 59.4198Z" fill="url(#paint1_linear_495_2501)"/>
</g>
<path d="M304.923 122.423L272.932 201.891L241.944 122.423H213.531L259.486 229.584H285.373L331.328 122.423H304.923Z" fill="white"/>
<path d="M388.216 230.989C421.528 230.989 445.408 208.112 445.408 176.003C445.408 143.895 421.528 121.219 388.216 121.219C355.305 121.219 331.223 143.895 331.223 176.003C331.223 208.112 355.305 230.989 388.216 230.989ZM388.216 209.516C370.155 209.516 356.509 196.472 356.509 176.003C356.509 155.534 370.155 142.49 388.216 142.49C406.477 142.49 420.123 155.534 420.123 176.003C420.123 196.472 406.477 209.516 388.216 209.516Z" fill="white"/>
<path d="M107.266 96.1256C107.266 98.6079 106.776 100.927 105.796 103.083C104.881 105.238 103.608 107.133 101.975 108.766C100.341 110.334 98.4143 111.607 96.1933 112.587C94.0376 113.502 91.7186 113.959 89.2362 113.959C86.7539 113.959 84.4022 113.502 82.1812 112.587C80.0255 111.607 78.1311 110.334 76.498 108.766C74.9302 107.133 73.6564 105.238 72.6765 103.083C71.762 100.927 71.3047 98.6079 71.3047 96.1256C71.3047 93.7086 71.762 91.4222 72.6765 89.2665C73.6564 87.0455 74.9302 85.1511 76.498 83.5833C78.1311 81.9502 80.0255 80.6763 82.1812 79.7618C84.4022 78.7819 86.7539 78.292 89.2362 78.292C91.7186 78.292 94.0376 78.7819 96.1933 79.7618C98.4143 80.6763 100.341 81.9502 101.975 83.5833C103.608 85.1511 104.881 87.0455 105.796 89.2665C106.776 91.4222 107.266 93.7086 107.266 96.1256ZM102.66 229.583H75.7141V124.64H102.66V229.583Z" fill="white"/>
<path d="M145.876 229.583H119.126V124.64H125.593L134.412 134.83C138.723 130.911 143.59 127.906 149.012 125.816C154.499 123.66 160.215 122.582 166.16 122.582C172.561 122.582 178.604 123.823 184.287 126.305C189.97 128.722 194.935 132.087 199.181 136.398C203.427 140.644 206.759 145.641 209.176 151.39C211.658 157.073 212.899 163.148 212.899 169.616V229.583H186.149V169.616C186.149 166.872 185.626 164.292 184.581 161.875C183.536 159.392 182.099 157.237 180.27 155.407C178.441 153.578 176.318 152.141 173.901 151.096C171.484 150.051 168.903 149.528 166.16 149.528C163.351 149.528 160.705 150.051 158.223 151.096C155.74 152.141 153.585 153.578 151.756 155.407C149.927 157.237 148.489 159.392 147.444 161.875C146.399 164.292 145.876 166.872 145.876 169.616V229.583Z" fill="white"/>
<path d="M252.122 289.081L255.247 297.264C252.866 298.975 249.37 299.793 245.799 299.793C236.351 299.793 230.846 294.958 230.846 285.436V268.995H224.672V260.068H230.846V250.323H242.451V260.068H252.42V268.995H242.451V285.287C242.451 288.709 244.311 290.569 247.435 290.569C249.146 290.569 250.857 290.048 252.122 289.081Z" fill="white"/>
<path d="M278.082 299.793C265.361 299.793 256.062 291.238 256.062 279.187C256.062 267.136 265.361 258.581 278.082 258.581C290.803 258.581 300.027 267.136 300.027 279.187C300.027 291.238 290.803 299.793 278.082 299.793ZM278.082 290.271C283.885 290.271 288.274 286.105 288.274 279.187C288.274 272.269 283.885 268.103 278.082 268.103C272.28 268.103 267.816 272.269 267.816 279.187C267.816 286.105 272.28 290.271 278.082 290.271Z" fill="white"/>
<path d="M325.341 299.793C312.62 299.793 303.321 291.238 303.321 279.187C303.321 267.136 312.62 258.581 325.341 258.581C338.062 258.581 347.286 267.136 347.286 279.187C347.286 291.238 338.062 299.793 325.341 299.793ZM325.341 290.271C331.143 290.271 335.532 286.105 335.532 279.187C335.532 272.269 331.143 268.103 325.341 268.103C319.538 268.103 315.075 272.269 315.075 279.187C315.075 286.105 319.538 290.271 325.341 290.271Z" fill="white"/>
<path d="M353.555 299.198V244H365.16V299.198H353.555Z" fill="white"/>
<path d="M387.907 299.793C381.138 299.793 374.294 297.933 370.574 295.478L374.443 287.147C378.014 289.453 383.444 291.015 388.354 291.015C393.71 291.015 395.719 289.602 395.719 287.37C395.719 280.823 371.542 287.519 371.542 271.525C371.542 263.937 378.385 258.581 390.065 258.581C395.57 258.581 401.67 259.845 405.464 262.077L401.595 270.334C397.653 268.103 393.71 267.359 390.065 267.359C384.857 267.359 382.626 268.995 382.626 271.078C382.626 277.922 406.803 271.301 406.803 287.072C406.803 294.511 399.884 299.793 387.907 299.793Z" fill="white"/>
<defs>
<filter id="filter0_d_495_2501" x="57.6172" y="0.00878906" width="239.859" height="73.6846" filterUnits="userSpaceOnUse" color-interpolation-filters="sRGB">
<feFlood flood-opacity="0" result="BackgroundImageFix"/>
<feColorMatrix in="SourceAlpha" type="matrix" values="0 0 0 0 0 0 0 0 0 0 0 0 0 0 0 0 0 0 127 0" result="hardAlpha"/>
<feOffset dy="4"/>
<feGaussianBlur stdDeviation="2"/>
<feComposite in2="hardAlpha" operator="out"/>
<feColorMatrix type="matrix" values="0 0 0 0 0 0 0 0 0 0 0 0 0 0 0 0 0 0 0.1 0"/>
<feBlend mode="normal" in2="BackgroundImageFix" result="effect1_dropShadow_495_2501"/>
<feBlend mode="normal" in="SourceGraphic" in2="effect1_dropShadow_495_2501" result="shape"/>
</filter>
<linearGradient id="paint0_linear_495_2501" x1="201.09" y1="4.04416" x2="201.09" y2="313.521" gradientUnits="userSpaceOnUse">
<stop stop-color="#5B5B5B"/>
<stop offset="1" stop-color="#1C1C1C"/>
</linearGradient>
<linearGradient id="paint1_linear_495_2501" x1="135.609" y1="25.4933" x2="147.899" y2="55.2914" gradientUnits="userSpaceOnUse">
<stop stop-color="#FFC664"/>
<stop offset="0.229167" stop-color="#FFDDA4"/>
<stop offset="0.255208" stop-color="#FFDDA4"/>
<stop offset="1" stop-color="#FFA712"/>
</linearGradient>
</defs>
</svg>
