<svg width="88" height="68" viewBox="0 0 88 68" fill="none" xmlns="http://www.w3.org/2000/svg">
<path d="M65.6929 67.5533L1.95339 40.1059C0.301297 39.3509 -0.444752 37.4147 0.272534 35.7447L11.1055 10.53C11.501 9.60958 12.2129 8.86173 13.1172 8.42848C15.2133 7.42536 19.2474 5.51799 22.2477 4.2542C25.4548 2.90232 29.7244 1.1963 32.0039 0.29205C33.0268 -0.114232 34.1593 -0.0980527 35.1643 0.349577C44.1834 4.36746 74.5898 16.8651 86.1257 22.3805C87.7544 23.1589 88.443 25.0878 87.7041 26.7328L70.1333 65.8815C69.3729 67.5749 67.381 68.3245 65.6929 67.5533Z" fill="url(#paint0_linear_134_1447)"/>
<path d="M11.0391 10.681C12.0386 8.77004 14.354 7.91792 16.3729 8.77363L22.9039 11.5439C24.592 12.2594 26.5407 11.4828 27.2742 9.80372L30.3518 2.75131C31.1968 0.813377 33.3378 -0.162778 35.3189 0.399904C35.2722 0.38013 35.2254 0.360355 35.1787 0.34058C34.1666 -0.0926678 33.0268 -0.112443 32.0039 0.29384C29.7244 1.19809 25.4549 2.90411 22.2478 4.25599C19.0263 5.61326 15.1396 7.45411 13.1082 8.43027C12.2094 8.86352 11.5029 9.60777 11.1092 10.5246L11.0409 10.6828L11.0391 10.681Z" fill="url(#paint1_linear_134_1447)"/>
<path d="M19.874 22.35V40.733H14.9165V22.35H19.874ZM17.3604 12.881C18.2448 12.881 18.9663 13.1585 19.5249 13.7134C20.1068 14.2453 20.3977 14.9274 20.3977 15.7598C20.3977 16.5923 20.1068 17.286 19.5249 17.8409C18.9663 18.3728 18.2448 18.6387 17.3604 18.6387C16.4759 18.6387 15.7544 18.3728 15.1958 17.8409C14.6372 17.286 14.3579 16.5923 14.3579 15.7598C14.3579 14.9274 14.6372 14.2453 15.1958 13.7134C15.7544 13.1585 16.4759 12.881 17.3604 12.881Z" fill="white"/>
<path d="M35.1037 21.795C36.7329 21.795 38.0014 22.2922 38.9091 23.2865C39.8168 24.2577 40.2707 25.6104 40.2707 27.3446V40.733H35.3132V28.1771C35.3132 27.1828 35.1386 26.4891 34.7895 26.096C34.4636 25.6797 33.9632 25.4716 33.2882 25.4716C32.59 25.4716 31.9499 25.6913 31.3681 26.1307C30.8095 26.5469 30.2625 27.1828 29.7272 28.0383V40.733H24.7697V22.35H29.0639L29.4479 24.6739C30.216 23.7258 31.0539 23.009 31.9616 22.5234C32.8926 22.0378 33.9399 21.795 35.1037 21.795Z" fill="white"/>
<path d="M60.1442 22.35L54.2091 40.733H48.309L42.2691 22.35H47.6456L51.3114 36.883L55.047 22.35H60.1442Z" fill="white"/>
<path d="M70.0584 21.795C72.8281 21.795 74.9927 22.6622 76.5521 24.3964C78.1115 26.1075 78.8912 28.4892 78.8912 31.5415C78.8912 33.4839 78.5305 35.195 77.809 36.6749C77.1107 38.1317 76.0866 39.2647 74.7367 40.074C73.41 40.8833 71.839 41.288 70.0235 41.288C67.2538 41.288 65.0776 40.4324 63.4949 38.7213C61.9355 36.9871 61.1558 34.5938 61.1558 31.5415C61.1558 29.5992 61.505 27.8996 62.2032 26.4428C62.9247 24.9629 63.9488 23.8183 65.2755 23.009C66.6254 22.1997 68.2197 21.795 70.0584 21.795ZM70.0584 25.4716C68.8016 25.4716 67.859 25.9688 67.2306 26.9631C66.6254 27.9343 66.3228 29.4604 66.3228 31.5415C66.3228 33.6226 66.6254 35.1603 67.2306 36.1546C67.859 37.1258 68.79 37.6114 70.0235 37.6114C71.2571 37.6114 72.1765 37.1258 72.7816 36.1546C73.41 35.1603 73.7242 33.6226 73.7242 31.5415C73.7242 29.4604 73.4217 27.9343 72.8165 26.9631C72.2114 25.9688 71.292 25.4716 70.0584 25.4716Z" fill="white"/>
<path d="M45.1694 46.7237V48.0267H40.9175V46.7237H45.1694ZM42.0559 44.8995H43.8732V52.0043C43.8732 52.2238 43.903 52.3929 43.9624 52.5118C44.0218 52.6307 44.111 52.7107 44.2299 52.7518C44.3487 52.793 44.4905 52.8135 44.655 52.8135C44.7739 52.8135 44.8836 52.8067 44.9842 52.793C45.0848 52.7793 45.1694 52.7655 45.238 52.7518L45.2448 54.1097C45.0939 54.16 44.9225 54.2011 44.7305 54.2331C44.543 54.2651 44.3304 54.2811 44.0927 54.2811C43.6858 54.2811 43.3292 54.2126 43.0229 54.0754C42.7165 53.9337 42.4788 53.7074 42.3096 53.3965C42.1405 53.081 42.0559 52.665 42.0559 52.1483V44.8995Z" fill="white"/>
<path d="M46.0864 50.5093V50.3653C46.0864 49.8212 46.1641 49.3206 46.3196 48.8634C46.475 48.4016 46.7014 48.0016 46.9985 47.6633C47.2957 47.3249 47.6592 47.062 48.0889 46.8746C48.5187 46.6826 49.0079 46.5866 49.5565 46.5866C50.1143 46.5866 50.6081 46.6826 51.0378 46.8746C51.4722 47.062 51.8379 47.3249 52.1351 47.6633C52.4323 48.0016 52.6586 48.4016 52.814 48.8634C52.9695 49.3206 53.0472 49.8212 53.0472 50.3653V50.5093C53.0472 51.0488 52.9695 51.5494 52.814 52.0112C52.6586 52.4684 52.4323 52.8684 52.1351 53.2113C51.8379 53.5496 51.4745 53.8125 51.0447 54C50.6149 54.1874 50.1235 54.2811 49.5702 54.2811C49.0216 54.2811 48.5301 54.1874 48.0958 54C47.6615 53.8125 47.2957 53.5496 46.9985 53.2113C46.7014 52.8684 46.475 52.4684 46.3196 52.0112C46.1641 51.5494 46.0864 51.0488 46.0864 50.5093ZM47.8969 50.3653V50.5093C47.8969 50.8339 47.9289 51.1379 47.9929 51.4214C48.0569 51.7049 48.1552 51.954 48.2878 52.1689C48.4204 52.3838 48.5919 52.5529 48.8022 52.6764C49.017 52.7953 49.2731 52.8547 49.5702 52.8547C49.8629 52.8547 50.1143 52.7953 50.3246 52.6764C50.5349 52.5529 50.7064 52.3838 50.839 52.1689C50.9761 51.954 51.0767 51.7049 51.1407 51.4214C51.2047 51.1379 51.2367 50.8339 51.2367 50.5093V50.3653C51.2367 50.0452 51.2047 49.7458 51.1407 49.4669C51.0767 49.1834 50.9761 48.9343 50.839 48.7194C50.7064 48.4999 50.5326 48.3285 50.3178 48.205C50.1075 48.077 49.8537 48.013 49.5565 48.013C49.2639 48.013 49.0125 48.077 48.8022 48.205C48.5919 48.3285 48.4204 48.4999 48.2878 48.7194C48.1552 48.9343 48.0569 49.1834 47.9929 49.4669C47.9289 49.7458 47.8969 50.0452 47.8969 50.3653Z" fill="white"/>
<path d="M54.2523 50.5093V50.3653C54.2523 49.8212 54.33 49.3206 54.4855 48.8634C54.6409 48.4016 54.8672 48.0016 55.1644 47.6633C55.4616 47.3249 55.825 47.062 56.2548 46.8746C56.6846 46.6826 57.1738 46.5866 57.7224 46.5866C58.2802 46.5866 58.7739 46.6826 59.2037 46.8746C59.638 47.062 60.0038 47.3249 60.301 47.6633C60.5981 48.0016 60.8244 48.4016 60.9799 48.8634C61.1353 49.3206 61.2131 49.8212 61.2131 50.3653V50.5093C61.2131 51.0488 61.1353 51.5494 60.9799 52.0112C60.8244 52.4684 60.5981 52.8684 60.301 53.2113C60.0038 53.5496 59.6403 53.8125 59.2106 54C58.7808 54.1874 58.2893 54.2811 57.7361 54.2811C57.1875 54.2811 56.696 54.1874 56.2616 54C55.8273 53.8125 55.4616 53.5496 55.1644 53.2113C54.8672 52.8684 54.6409 52.4684 54.4855 52.0112C54.33 51.5494 54.2523 51.0488 54.2523 50.5093ZM56.0628 50.3653V50.5093C56.0628 50.8339 56.0948 51.1379 56.1588 51.4214C56.2228 51.7049 56.3211 51.954 56.4537 52.1689C56.5863 52.3838 56.7577 52.5529 56.968 52.6764C57.1829 52.7953 57.4389 52.8547 57.7361 52.8547C58.0287 52.8547 58.2802 52.7953 58.4905 52.6764C58.7008 52.5529 58.8722 52.3838 59.0048 52.1689C59.142 51.954 59.2426 51.7049 59.3066 51.4214C59.3706 51.1379 59.4026 50.8339 59.4026 50.5093V50.3653C59.4026 50.0452 59.3706 49.7458 59.3066 49.4669C59.2426 49.1834 59.142 48.9343 59.0048 48.7194C58.8722 48.4999 58.6985 48.3285 58.4836 48.205C58.2733 48.077 58.0196 48.013 57.7224 48.013C57.4298 48.013 57.1783 48.077 56.968 48.205C56.7577 48.3285 56.5863 48.4999 56.4537 48.7194C56.3211 48.9343 56.2228 49.1834 56.1588 49.4669C56.0948 49.7458 56.0628 50.0452 56.0628 50.3653Z" fill="white"/>
<path d="M64.6607 43.6102V54.144H62.8433V43.6102H64.6607Z" fill="white"/>
<path d="M70.68 52.114C70.68 51.9586 70.6389 51.8192 70.5566 51.6957C70.4743 51.5723 70.3188 51.4603 70.0902 51.3597C69.8662 51.2545 69.537 51.1562 69.1027 51.0648C68.7186 50.9825 68.3643 50.8796 68.0397 50.7562C67.7151 50.6327 67.4362 50.4841 67.203 50.3104C66.9699 50.1321 66.787 49.9241 66.6544 49.6863C66.5264 49.444 66.4624 49.1651 66.4624 48.8497C66.4624 48.5434 66.5287 48.2553 66.6613 47.9856C66.7938 47.7113 66.9859 47.4712 67.2373 47.2655C67.4888 47.0552 67.7951 46.8906 68.1563 46.7717C68.5175 46.6483 68.9244 46.5866 69.377 46.5866C70.0079 46.5866 70.5497 46.6894 71.0023 46.8952C71.4595 47.1009 71.8093 47.3844 72.0516 47.7456C72.2939 48.1022 72.4151 48.5045 72.4151 48.9525H70.6046C70.6046 48.7559 70.5588 48.5776 70.4674 48.4176C70.3805 48.2576 70.2457 48.1296 70.0628 48.0336C69.8799 47.933 69.649 47.8827 69.3701 47.8827C69.1187 47.8827 68.9061 47.9239 68.7324 48.0062C68.5632 48.0884 68.4352 48.1959 68.3483 48.3285C68.2614 48.4611 68.218 48.6074 68.218 48.7674C68.218 48.8863 68.2409 48.9937 68.2866 49.0897C68.3369 49.1811 68.4169 49.2657 68.5266 49.3434C68.6363 49.4212 68.7849 49.492 68.9724 49.556C69.1644 49.62 69.3999 49.6818 69.6787 49.7412C70.232 49.8509 70.7143 49.9972 71.1258 50.1801C71.5418 50.3584 71.8664 50.5962 72.0996 50.8933C72.3328 51.1905 72.4493 51.57 72.4493 52.0317C72.4493 52.3609 72.3785 52.6627 72.2367 52.937C72.095 53.2067 71.8893 53.4422 71.6195 53.6434C71.3498 53.8445 71.0275 54.0023 70.6526 54.1166C70.2777 54.2263 69.8548 54.2811 69.3839 54.2811C68.7026 54.2811 68.1266 54.16 67.6557 53.9177C67.1847 53.6708 66.8281 53.3599 66.5858 52.985C66.3435 52.6055 66.2224 52.2123 66.2224 51.8054H67.9574C67.9711 52.0935 68.0488 52.3244 68.1906 52.4981C68.3323 52.6718 68.5106 52.7975 68.7255 52.8753C68.9449 52.9484 69.1758 52.985 69.4181 52.985C69.6925 52.985 69.9233 52.9484 70.1108 52.8753C70.2982 52.7975 70.44 52.6947 70.536 52.5667C70.632 52.4341 70.68 52.2832 70.68 52.114Z" fill="white"/>
<defs>
<linearGradient id="paint0_linear_134_1447" x1="44" y1="0.727096" x2="44" y2="56.3626" gradientUnits="userSpaceOnUse">
<stop stop-color="#5B5B5B"/>
<stop offset="1" stop-color="#1E1E1E"/>
</linearGradient>
<linearGradient id="paint1_linear_134_1447" x1="23.01" y1="5.13147" x2="25.2194" y2="10.4886" gradientUnits="userSpaceOnUse">
<stop stop-color="#FFC25A"/>
<stop offset="0.23" stop-color="#FFDDA4"/>
<stop offset="0.26" stop-color="#FFDDA4"/>
<stop offset="1" stop-color="#FFA100"/>
</linearGradient>
</defs>
</svg>
