<svg width="150" height="137" viewBox="0 0 150 137" fill="none" xmlns="http://www.w3.org/2000/svg">
<path d="M111.977 126.148L3.32964 79.3623C0.513575 78.0753 -0.7581 74.7751 0.464546 71.9284L18.9299 28.9489C19.604 27.38 20.8175 26.1052 22.3588 25.3667C25.9317 23.6569 32.808 20.4057 37.9223 18.2515C43.3889 15.9471 50.6666 13.0391 54.5521 11.4978C56.2957 10.8053 58.2262 10.8329 59.9391 11.5959C75.3126 18.4445 127.142 39.7474 146.805 49.1486C149.581 50.4754 150.755 53.7634 149.496 56.5672L119.545 123.298C118.249 126.184 114.854 127.462 111.977 126.148Z" fill="url(#paint0_linear_259_174)"/>
<path d="M18.8165 29.2064C20.5203 25.9491 24.4671 24.4967 27.9082 25.9552L39.0408 30.6773C41.9181 31.8969 45.2398 30.5731 46.49 27.7111L51.736 15.6899C53.1763 12.3866 56.8258 10.7227 60.2026 11.6818C60.123 11.6481 60.0433 11.6144 59.9636 11.5807C58.2384 10.8422 56.2957 10.8085 54.5521 11.5011C50.6666 13.0424 43.389 15.9504 37.9223 18.2547C32.4311 20.5682 25.8061 23.7061 22.3435 25.37C20.8114 26.1085 19.6071 27.3771 18.936 28.9399L18.8196 29.2095L18.8165 29.2064Z" fill="url(#paint1_linear_259_174)"/>
<path d="M33.8762 49.0964V80.4311H25.4258V49.0964H33.8762ZM29.5915 32.9561C31.0991 32.9561 32.3289 33.429 33.2811 34.375C34.2729 35.2815 34.7688 36.4443 34.7688 37.8632C34.7688 39.2821 34.2729 40.4646 33.2811 41.4105C32.3289 42.3171 31.0991 42.7703 29.5915 42.7703C28.0839 42.7703 26.8541 42.3171 25.9019 41.4105C24.9498 40.4646 24.4737 39.2821 24.4737 37.8632C24.4737 36.4443 24.9498 35.2815 25.9019 34.375C26.8541 33.429 28.0839 32.9561 29.5915 32.9561Z" fill="white"/>
<path d="M59.8358 48.1504C62.6129 48.1504 64.7751 48.9979 66.3223 50.6927C67.8696 52.3481 68.6432 54.6539 68.6432 57.61V80.4311H60.1929V59.0289C60.1929 57.3341 59.8953 56.1516 59.3002 55.4816C58.7448 54.7721 57.8918 54.4174 56.7413 54.4174C55.5511 54.4174 54.4601 54.7918 53.4683 55.5407C52.5161 56.2502 51.5838 57.3341 50.6713 58.7924V80.4311H42.221V49.0964H49.5407L50.1953 53.0576C51.5045 51.4416 52.9327 50.2197 54.4799 49.392C56.0669 48.5643 57.8522 48.1504 59.8358 48.1504Z" fill="white"/>
<path d="M102.519 49.0964L92.4019 80.4311H82.3448L72.0497 49.0964H81.2141L87.4626 73.8686L93.8301 49.0964H102.519Z" fill="white"/>
<path d="M119.418 48.1504C124.139 48.1504 127.828 49.6285 130.487 52.5846C133.145 55.5013 134.474 59.561 134.474 64.7638C134.474 68.0746 133.859 70.9913 132.629 73.5139C131.439 75.997 129.693 77.9283 127.392 79.3078C125.131 80.6873 122.453 81.3771 119.358 81.3771C114.637 81.3771 110.928 79.9188 108.23 77.0021C105.572 74.046 104.243 69.9665 104.243 64.7638C104.243 61.4529 104.838 58.5559 106.028 56.0728C107.258 53.5503 109.004 51.5992 111.265 50.2197C113.566 48.8402 116.284 48.1504 119.418 48.1504ZM119.418 54.4174C117.275 54.4174 115.669 55.2648 114.598 56.9597C113.566 58.6151 113.05 61.2164 113.05 64.7638C113.05 68.3111 113.566 70.9322 114.598 72.627C115.669 74.2824 117.256 75.1102 119.358 75.1102C121.461 75.1102 123.028 74.2824 124.06 72.627C125.131 70.9322 125.666 68.3111 125.666 64.7638C125.666 61.2164 125.151 58.6151 124.119 56.9597C123.088 55.2648 121.52 54.4174 119.418 54.4174Z" fill="white"/>
<path d="M76.9935 90.6425V92.8636H69.7459V90.6425H76.9935ZM71.6864 87.5331H74.7841V99.6435C74.7841 100.018 74.8348 100.306 74.9361 100.509C75.0374 100.711 75.1894 100.848 75.392 100.918C75.5946 100.988 75.8362 101.023 76.1168 101.023C76.3194 101.023 76.5064 101.011 76.6779 100.988C76.8493 100.964 76.9935 100.941 77.1104 100.918L77.1221 103.232C76.8649 103.318 76.5727 103.388 76.2453 103.443C75.9258 103.497 75.5634 103.525 75.1582 103.525C74.4646 103.525 73.8568 103.408 73.3346 103.174C72.8125 102.932 72.4072 102.546 72.1189 102.017C71.8306 101.479 71.6864 100.77 71.6864 99.889V87.5331Z" fill="white"/>
<path d="M78.5566 97.0952V96.8497C78.5566 95.9224 78.6891 95.069 78.9541 94.2897C79.219 93.5026 79.6048 92.8207 80.1113 92.244C80.6179 91.6673 81.2374 91.2192 81.97 90.8997C82.7025 90.5724 83.5364 90.4087 84.4716 90.4087C85.4223 90.4087 86.264 90.5724 86.9965 90.8997C87.7369 91.2192 88.3603 91.6673 88.8669 92.244C89.3734 92.8207 89.7592 93.5026 90.0241 94.2897C90.2891 95.069 90.4216 95.9224 90.4216 96.8497V97.0952C90.4216 98.0148 90.2891 98.8681 90.0241 99.6552C89.7592 100.435 89.3734 101.116 88.8669 101.701C88.3603 102.278 87.7408 102.726 87.0082 103.045C86.2757 103.365 85.4379 103.525 84.4949 103.525C83.5598 103.525 82.722 103.365 81.9817 103.045C81.2413 102.726 80.6179 102.278 80.1113 101.701C79.6048 101.116 79.219 100.435 78.9541 99.6552C78.6891 98.8681 78.5566 98.0148 78.5566 97.0952ZM81.6427 96.8497V97.0952C81.6427 97.6485 81.6972 98.1668 81.8063 98.6499C81.9154 99.1331 82.083 99.5578 82.309 99.9241C82.535 100.29 82.8272 100.579 83.1857 100.789C83.552 100.992 83.9884 101.093 84.4949 101.093C84.9937 101.093 85.4223 100.992 85.7808 100.789C86.1393 100.579 86.4315 100.29 86.6575 99.9241C86.8913 99.5578 87.0628 99.1331 87.1719 98.6499C87.281 98.1668 87.3355 97.6485 87.3355 97.0952V96.8497C87.3355 96.3042 87.281 95.7938 87.1719 95.3184C87.0628 94.8352 86.8913 94.4105 86.6575 94.0442C86.4315 93.6702 86.1354 93.3779 85.7691 93.1675C85.4106 92.9493 84.9781 92.8402 84.4716 92.8402C83.9728 92.8402 83.5442 92.9493 83.1857 93.1675C82.8272 93.3779 82.535 93.6702 82.309 94.0442C82.083 94.4105 81.9154 94.8352 81.8063 95.3184C81.6972 95.7938 81.6427 96.3042 81.6427 96.8497Z" fill="white"/>
<path d="M92.4757 97.0952V96.8497C92.4757 95.9224 92.6082 95.069 92.8731 94.2897C93.1381 93.5026 93.5239 92.8207 94.0304 92.244C94.537 91.6673 95.1565 91.2192 95.8891 90.8997C96.6216 90.5724 97.4555 90.4087 98.3906 90.4087C99.3414 90.4087 100.183 90.5724 100.916 90.8997C101.656 91.2192 102.279 91.6673 102.786 92.244C103.292 92.8207 103.678 93.5026 103.943 94.2897C104.208 95.069 104.341 95.9224 104.341 96.8497V97.0952C104.341 98.0148 104.208 98.8681 103.943 99.6552C103.678 100.435 103.292 101.116 102.786 101.701C102.279 102.278 101.66 102.726 100.927 103.045C100.195 103.365 99.357 103.525 98.414 103.525C97.4788 103.525 96.6411 103.365 95.9007 103.045C95.1604 102.726 94.537 102.278 94.0304 101.701C93.5239 101.116 93.1381 100.435 92.8731 99.6552C92.6082 98.8681 92.4757 98.0148 92.4757 97.0952ZM95.5617 96.8497V97.0952C95.5617 97.6485 95.6163 98.1668 95.7254 98.6499C95.8345 99.1331 96.0021 99.5578 96.2281 99.9241C96.4541 100.29 96.7463 100.579 97.1048 100.789C97.4711 100.992 97.9075 101.093 98.414 101.093C98.9128 101.093 99.3414 100.992 99.6999 100.789C100.058 100.579 100.351 100.29 100.577 99.9241C100.81 99.5578 100.982 99.1331 101.091 98.6499C101.2 98.1668 101.255 97.6485 101.255 97.0952V96.8497C101.255 96.3042 101.2 95.7938 101.091 95.3184C100.982 94.8352 100.81 94.4105 100.577 94.0442C100.351 93.6702 100.054 93.3779 99.6882 93.1675C99.3297 92.9493 98.8972 92.8402 98.3906 92.8402C97.8919 92.8402 97.4633 92.9493 97.1048 93.1675C96.7463 93.3779 96.4541 93.6702 96.2281 94.0442C96.0021 94.4105 95.8345 94.8352 95.7254 95.3184C95.6163 95.7938 95.5617 96.3042 95.5617 96.8497Z" fill="white"/>
<path d="M110.217 85.3354V103.291H107.12V85.3354H110.217Z" fill="white"/>
<path d="M120.477 99.8306C120.477 99.5656 120.407 99.3279 120.267 99.1175C120.127 98.9071 119.862 98.7162 119.472 98.5447C119.09 98.3655 118.529 98.1979 117.789 98.0421C117.134 97.9018 116.53 97.7265 115.977 97.516C115.424 97.3056 114.948 97.0523 114.551 96.7562C114.153 96.4523 113.842 96.0977 113.616 95.6925C113.397 95.2794 113.288 94.804 113.288 94.2663C113.288 93.7442 113.401 93.2532 113.627 92.7934C113.853 92.3258 114.181 91.9167 114.609 91.566C115.038 91.2075 115.56 90.927 116.176 90.7244C116.791 90.514 117.485 90.4087 118.256 90.4087C119.332 90.4087 120.255 90.5841 121.027 90.9348C121.806 91.2855 122.402 91.7686 122.815 92.3843C123.228 92.9922 123.435 93.6779 123.435 94.4417H120.349C120.349 94.1066 120.271 93.8026 120.115 93.5299C119.967 93.2571 119.737 93.0389 119.425 92.8753C119.114 92.7038 118.72 92.6181 118.245 92.6181C117.816 92.6181 117.454 92.6882 117.158 92.8285C116.869 92.9688 116.651 93.1519 116.503 93.3779C116.355 93.6039 116.281 93.8533 116.281 94.126C116.281 94.3287 116.32 94.5118 116.398 94.6755C116.484 94.8313 116.62 94.9755 116.807 95.108C116.994 95.2405 117.247 95.3612 117.567 95.4704C117.894 95.5795 118.295 95.6847 118.771 95.786C119.714 95.973 120.536 96.2224 121.237 96.5341C121.946 96.838 122.5 97.2433 122.897 97.7498C123.295 98.2564 123.493 98.9032 123.493 99.6903C123.493 100.251 123.373 100.766 123.131 101.233C122.889 101.693 122.539 102.094 122.079 102.437C121.619 102.78 121.07 103.049 120.431 103.244C119.792 103.431 119.071 103.525 118.268 103.525C117.107 103.525 116.125 103.318 115.322 102.905C114.52 102.484 113.912 101.954 113.499 101.315C113.086 100.668 112.879 99.9981 112.879 99.3045H115.837C115.86 99.7955 115.993 100.189 116.234 100.485C116.476 100.781 116.78 100.996 117.146 101.128C117.52 101.253 117.914 101.315 118.327 101.315C118.794 101.315 119.188 101.253 119.507 101.128C119.827 100.996 120.068 100.82 120.232 100.602C120.396 100.376 120.477 100.119 120.477 99.8306Z" fill="white"/>
<defs>
<linearGradient id="paint0_linear_259_174" x1="75" y1="12.2394" x2="75" y2="107.073" gradientUnits="userSpaceOnUse">
<stop stop-color="#5B5B5B"/>
<stop offset="1" stop-color="#1E1E1E"/>
</linearGradient>
<linearGradient id="paint1_linear_259_174" x1="39.2215" y1="19.747" x2="42.9875" y2="28.8786" gradientUnits="userSpaceOnUse">
<stop stop-color="#FFC25A"/>
<stop offset="0.23" stop-color="#FFDDA4"/>
<stop offset="0.26" stop-color="#FFDDA4"/>
<stop offset="1" stop-color="#FFA100"/>
</linearGradient>
</defs>
</svg>
