<svg width="88" height="81" viewBox="0 0 88 81" fill="none" xmlns="http://www.w3.org/2000/svg">
<path d="M65.6929 74.0067L1.95339 46.5593C0.301297 45.8042 -0.444752 43.8681 0.272534 42.198L11.1055 16.9834C11.501 16.0629 12.2129 15.3151 13.1172 14.8819C15.2133 13.8787 19.2474 11.9714 22.2477 10.7076C25.4548 9.35569 29.7244 7.64967 32.0039 6.74542C33.0268 6.33914 34.1593 6.35532 35.1643 6.80295C44.1834 10.8208 74.5898 23.3185 86.1257 28.8339C87.7544 29.6123 88.443 31.5412 87.7041 33.1861L70.1333 72.3348C69.3729 74.0283 67.381 74.7779 65.6929 74.0067Z" fill="url(#paint0_linear_410_865)"/>
<path d="M11.0391 17.1344C12.0386 15.2234 14.354 14.3713 16.3729 15.227L22.9039 17.9973C24.592 18.7128 26.5407 17.9361 27.2742 16.2571L30.3518 9.20468C31.1968 7.26675 33.3378 6.29059 35.3189 6.85327C35.2722 6.8335 35.2254 6.81372 35.1787 6.79395C34.1666 6.3607 33.0268 6.34093 32.0039 6.74721C29.7244 7.65146 25.4549 9.35748 22.2478 10.7094C19.0263 12.0666 15.1396 13.9075 13.1082 14.8836C12.2094 15.3169 11.5029 16.0611 11.1092 16.978L11.0409 17.1362L11.0391 17.1344Z" fill="url(#paint1_linear_410_865)"/>
<path d="M19.8745 28.8033V47.1863H14.917V28.8033H19.8745ZM17.3608 19.3343C18.2453 19.3343 18.9668 19.6118 19.5254 20.1667C20.1073 20.6986 20.3982 21.3807 20.3982 22.2131C20.3982 23.0456 20.1073 23.7393 19.5254 24.2942C18.9668 24.8261 18.2453 25.092 17.3608 25.092C16.4764 25.092 15.7549 24.8261 15.1963 24.2942C14.6377 23.7393 14.3584 23.0456 14.3584 22.2131C14.3584 21.3807 14.6377 20.6986 15.1963 20.1667C15.7549 19.6118 16.4764 19.3343 17.3608 19.3343Z" fill="white"/>
<path d="M35.1042 28.2483C36.7334 28.2483 38.0019 28.7455 38.9096 29.7398C39.8173 30.711 40.2712 32.0637 40.2712 33.7979V47.1863H35.3136V34.6304C35.3136 33.6361 35.1391 32.9424 34.79 32.5493C34.4641 32.1331 33.9637 31.9249 33.2887 31.9249C32.5905 31.9249 31.9504 32.1446 31.3686 32.584C30.81 33.0002 30.263 33.6361 29.7277 34.4916V47.1863H24.7701V28.8033H29.0644L29.4484 31.1272C30.2165 30.1791 31.0543 29.4623 31.9621 28.9767C32.8931 28.4911 33.9404 28.2483 35.1042 28.2483Z" fill="white"/>
<path d="M60.1447 28.8033L54.2096 47.1863H48.3094L42.2696 28.8033H47.6461L51.3119 43.3363L55.0475 28.8033H60.1447Z" fill="white"/>
<path d="M70.0589 28.2483C72.8286 28.2483 74.9932 29.1155 76.5526 30.8497C78.112 32.5608 78.8917 34.9425 78.8917 37.9948C78.8917 39.9372 78.531 41.6483 77.8094 43.1282C77.1112 44.585 76.0871 45.718 74.7372 46.5273C73.4105 47.3366 71.8395 47.7413 70.024 47.7413C67.2543 47.7413 65.0781 46.8857 63.4954 45.1746C61.936 43.4404 61.1563 41.0471 61.1563 37.9948C61.1563 36.0525 61.5054 34.3529 62.2037 32.8961C62.9252 31.4162 63.9493 30.2716 65.276 29.4623C66.6259 28.653 68.2202 28.2483 70.0589 28.2483ZM70.0589 31.9249C68.8021 31.9249 67.8595 32.4221 67.231 33.4164C66.6259 34.3876 66.3233 35.9137 66.3233 37.9948C66.3233 40.0759 66.6259 41.6136 67.231 42.6079C67.8595 43.5791 68.7905 44.0647 70.024 44.0647C71.2576 44.0647 72.1769 43.5791 72.7821 42.6079C73.4105 41.6136 73.7247 40.0759 73.7247 37.9948C73.7247 35.9137 73.4221 34.3876 72.817 33.4164C72.2119 32.4221 71.2925 31.9249 70.0589 31.9249Z" fill="white"/>
<path d="M45.1699 53.1771V54.4801H40.918V53.1771H45.1699ZM42.0564 51.3529H43.8737V58.4577C43.8737 58.6771 43.9034 58.8463 43.9629 58.9652C44.0223 59.084 44.1115 59.164 44.2303 59.2052C44.3492 59.2463 44.4909 59.2669 44.6555 59.2669C44.7744 59.2669 44.8841 59.2601 44.9847 59.2463C45.0853 59.2326 45.1699 59.2189 45.2385 59.2052L45.2453 60.5631C45.0944 60.6134 44.923 60.6545 44.731 60.6865C44.5435 60.7185 44.3309 60.7345 44.0932 60.7345C43.6863 60.7345 43.3297 60.6659 43.0233 60.5288C42.717 60.387 42.4793 60.1607 42.3101 59.8498C42.141 59.5344 42.0564 59.1183 42.0564 58.6017V51.3529Z" fill="white"/>
<path d="M46.0869 56.9627V56.8186C46.0869 56.2746 46.1646 55.774 46.3201 55.3168C46.4755 54.855 46.7018 54.4549 46.999 54.1166C47.2962 53.7783 47.6597 53.5154 48.0894 53.328C48.5192 53.1359 49.0084 53.0399 49.557 53.0399C50.1148 53.0399 50.6086 53.1359 51.0383 53.328C51.4727 53.5154 51.8384 53.7783 52.1356 54.1166C52.4328 54.4549 52.6591 54.855 52.8145 55.3168C52.97 55.774 53.0477 56.2746 53.0477 56.8186V56.9627C53.0477 57.5021 52.97 58.0028 52.8145 58.4645C52.6591 58.9217 52.4328 59.3218 52.1356 59.6647C51.8384 60.003 51.4749 60.2659 51.0452 60.4533C50.6154 60.6408 50.1239 60.7345 49.5707 60.7345C49.0221 60.7345 48.5306 60.6408 48.0963 60.4533C47.6619 60.2659 47.2962 60.003 46.999 59.6647C46.7018 59.3218 46.4755 58.9217 46.3201 58.4645C46.1646 58.0028 46.0869 57.5021 46.0869 56.9627ZM47.8974 56.8186V56.9627C47.8974 57.2873 47.9294 57.5913 47.9934 57.8748C48.0574 58.1582 48.1557 58.4074 48.2883 58.6223C48.4209 58.8372 48.5923 59.0063 48.8026 59.1298C49.0175 59.2486 49.2736 59.3081 49.5707 59.3081C49.8633 59.3081 50.1148 59.2486 50.3251 59.1298C50.5354 59.0063 50.7069 58.8372 50.8394 58.6223C50.9766 58.4074 51.0772 58.1582 51.1412 57.8748C51.2052 57.5913 51.2372 57.2873 51.2372 56.9627V56.8186C51.2372 56.4986 51.2052 56.1991 51.1412 55.9203C51.0772 55.6368 50.9766 55.3876 50.8394 55.1727C50.7069 54.9533 50.5331 54.7818 50.3182 54.6584C50.1079 54.5304 49.8542 54.4664 49.557 54.4664C49.2644 54.4664 49.013 54.5304 48.8026 54.6584C48.5923 54.7818 48.4209 54.9533 48.2883 55.1727C48.1557 55.3876 48.0574 55.6368 47.9934 55.9203C47.9294 56.1991 47.8974 56.4986 47.8974 56.8186Z" fill="white"/>
<path d="M54.2528 56.9627V56.8186C54.2528 56.2746 54.3305 55.774 54.4859 55.3168C54.6414 54.855 54.8677 54.4549 55.1649 54.1166C55.462 53.7783 55.8255 53.5154 56.2553 53.328C56.685 53.1359 57.1742 53.0399 57.7229 53.0399C58.2806 53.0399 58.7744 53.1359 59.2042 53.328C59.6385 53.5154 60.0043 53.7783 60.3014 54.1166C60.5986 54.4549 60.8249 54.855 60.9804 55.3168C61.1358 55.774 61.2136 56.2746 61.2136 56.8186V56.9627C61.2136 57.5021 61.1358 58.0028 60.9804 58.4645C60.8249 58.9217 60.5986 59.3218 60.3014 59.6647C60.0043 60.003 59.6408 60.2659 59.211 60.4533C58.7813 60.6408 58.2898 60.7345 57.7366 60.7345C57.188 60.7345 56.6965 60.6408 56.2621 60.4533C55.8278 60.2659 55.462 60.003 55.1649 59.6647C54.8677 59.3218 54.6414 58.9217 54.4859 58.4645C54.3305 58.0028 54.2528 57.5021 54.2528 56.9627ZM56.0633 56.8186V56.9627C56.0633 57.2873 56.0953 57.5913 56.1593 57.8748C56.2233 58.1582 56.3216 58.4074 56.4542 58.6223C56.5867 58.8372 56.7582 59.0063 56.9685 59.1298C57.1834 59.2486 57.4394 59.3081 57.7366 59.3081C58.0292 59.3081 58.2807 59.2486 58.491 59.1298C58.7013 59.0063 58.8727 58.8372 59.0053 58.6223C59.1425 58.4074 59.243 58.1582 59.3071 57.8748C59.3711 57.5913 59.4031 57.2873 59.4031 56.9627V56.8186C59.4031 56.4986 59.3711 56.1991 59.3071 55.9203C59.243 55.6368 59.1425 55.3876 59.0053 55.1727C58.8727 54.9533 58.699 54.7818 58.4841 54.6584C58.2738 54.5304 58.02 54.4664 57.7229 54.4664C57.4303 54.4664 57.1788 54.5304 56.9685 54.6584C56.7582 54.7818 56.5867 54.9533 56.4542 55.1727C56.3216 55.3876 56.2233 55.6368 56.1593 55.9203C56.0953 56.1991 56.0633 56.4986 56.0633 56.8186Z" fill="white"/>
<path d="M64.6612 50.0636V60.5974H62.8438V50.0636H64.6612Z" fill="white"/>
<path d="M70.6805 58.5674C70.6805 58.412 70.6393 58.2725 70.557 58.1491C70.4748 58.0256 70.3193 57.9136 70.0907 57.813C69.8667 57.7079 69.5375 57.6096 69.1032 57.5181C68.7191 57.4359 68.3648 57.333 68.0402 57.2095C67.7156 57.0861 67.4367 56.9375 67.2035 56.7638C66.9704 56.5855 66.7875 56.3775 66.6549 56.1397C66.5269 55.8974 66.4629 55.6185 66.4629 55.303C66.4629 54.9967 66.5292 54.7087 66.6618 54.4389C66.7943 54.1646 66.9864 53.9246 67.2378 53.7189C67.4893 53.5086 67.7956 53.344 68.1568 53.2251C68.518 53.1017 68.9249 53.0399 69.3775 53.0399C70.0084 53.0399 70.5502 53.1428 71.0028 53.3485C71.46 53.5543 71.8098 53.8377 72.0521 54.1989C72.2944 54.5555 72.4155 54.9579 72.4155 55.4059H70.6051C70.6051 55.2093 70.5593 55.031 70.4679 54.871C70.381 54.711 70.2462 54.583 70.0633 54.487C69.8804 54.3864 69.6495 54.3361 69.3706 54.3361C69.1192 54.3361 68.9066 54.3772 68.7328 54.4595C68.5637 54.5418 68.4357 54.6493 68.3488 54.7818C68.2619 54.9144 68.2185 55.0607 68.2185 55.2207C68.2185 55.3396 68.2414 55.4471 68.2871 55.5431C68.3374 55.6345 68.4174 55.7191 68.5271 55.7968C68.6368 55.8745 68.7854 55.9454 68.9729 56.0094C69.1649 56.0734 69.4003 56.1351 69.6792 56.1946C70.2324 56.3043 70.7148 56.4506 71.1263 56.6335C71.5423 56.8118 71.8669 57.0495 72.1001 57.3467C72.3332 57.6439 72.4498 58.0233 72.4498 58.4851C72.4498 58.8143 72.379 59.116 72.2372 59.3904C72.0955 59.6601 71.8898 59.8956 71.62 60.0967C71.3503 60.2979 71.028 60.4556 70.6531 60.5699C70.2782 60.6796 69.8553 60.7345 69.3843 60.7345C68.7031 60.7345 68.1271 60.6134 67.6561 60.371C67.1852 60.1242 66.8286 59.8133 66.5863 59.4384C66.344 59.0589 66.2228 58.6657 66.2228 58.2588H67.9579C67.9716 58.5468 68.0493 58.7777 68.1911 58.9515C68.3328 59.1252 68.5111 59.2509 68.726 59.3286C68.9454 59.4018 69.1763 59.4384 69.4186 59.4384C69.6929 59.4384 69.9238 59.4018 70.1113 59.3286C70.2987 59.2509 70.4405 59.148 70.5365 59.02C70.6325 58.8874 70.6805 58.7366 70.6805 58.5674Z" fill="white"/>
<defs>
<linearGradient id="paint0_linear_410_865" x1="44" y1="7.18046" x2="44" y2="62.816" gradientUnits="userSpaceOnUse">
<stop stop-color="#5B5B5B"/>
<stop offset="1" stop-color="#1E1E1E"/>
</linearGradient>
<linearGradient id="paint1_linear_410_865" x1="23.01" y1="11.5848" x2="25.2194" y2="16.942" gradientUnits="userSpaceOnUse">
<stop stop-color="#FFC25A"/>
<stop offset="0.23" stop-color="#FFDDA4"/>
<stop offset="0.26" stop-color="#FFDDA4"/>
<stop offset="1" stop-color="#FFA100"/>
</linearGradient>
</defs>
</svg>
