<svg width="210" height="54" viewBox="0 0 210 54" fill="none" xmlns="http://www.w3.org/2000/svg">
<g clip-path="url(#clip0_1_38)">
<path d="M161.503 4.44206H161.803V27.367H157.33V4.44206H161.505H161.503ZM185.942 18.7131H186.242V22.65H183.642V27.2181H179.705V22.65H166.785V18.7781L166.813 18.7181L173.244 4.73704L173.324 4.56303H183.643V18.7131H185.942ZM179.705 18.7131V8.51304H175.83L171.154 18.7131H179.705ZM210 15.913C210 23.534 206.721 27.399 200.256 27.399C193.791 27.399 190.67 23.535 190.67 15.913C190.67 12.46 191.212 9.826 192.286 8.085C193.786 5.658 196.47 4.42802 200.256 4.42802C201.935 4.38304 203.604 4.6914 205.156 5.33305C206.475 5.90701 207.591 6.8658 208.356 8.08403C209.449 9.82403 210.003 12.459 210.003 15.913H210ZM206.149 15.913C206.149 12.988 205.719 10.956 204.875 9.87504C204.046 8.81604 202.493 8.275 200.256 8.275C198.188 8.275 196.741 8.72704 195.956 9.62004C194.993 10.71 194.505 12.826 194.505 15.91C194.505 18.994 195.005 21.084 195.985 22.182C196.793 23.082 198.23 23.545 200.256 23.545C202.462 23.545 204.011 22.997 204.856 21.919C205.715 20.817 206.149 18.797 206.149 15.913ZM161.296 34.337L158.389 30.361H156.501L160.544 35.882V39.566H162.063V35.866L166.125 30.366H164.23L161.296 34.337ZM169.817 35.609H173.938V34.09H169.817V31.88H175.74V30.361H168.297V30.961V39.57H175.997V38.045H169.819V35.607L169.817 35.609ZM183.556 30.379L187.806 39.566H186.156L185.123 37.34H180.596L179.582 39.566H177.93L182.122 30.379H183.559H183.556ZM182.844 32.401L181.282 35.839H184.431L182.844 32.401ZM196.131 35.694L198.555 39.572H196.737L196.721 39.546L194.435 35.875H191.335V39.5751H189.797V30.375H189.81V30.362H194.685C195.559 30.3169 196.422 30.5795 197.123 31.104C197.419 31.3487 197.654 31.6585 197.81 32.0093C197.966 32.3601 198.04 32.7424 198.023 33.126C198.072 33.7106 197.907 34.293 197.56 34.7656C197.212 35.2382 196.705 35.569 196.133 35.697L196.131 35.694ZM194.681 31.905H191.331V34.337H194.681C195.891 34.337 196.481 33.937 196.481 33.124C196.481 32.311 195.89 31.908 194.68 31.908L194.681 31.905ZM207.722 34.73C206.777 34.3702 205.787 34.1443 204.78 34.059L204.228 33.9891C203.612 33.9358 203.002 33.8181 202.41 33.638C202.31 33.5964 202.227 33.5241 202.171 33.4316C202.116 33.3392 202.091 33.2314 202.101 33.124C202.101 32.265 202.911 31.824 204.501 31.824C205.621 31.8809 206.717 32.1686 207.72 32.669L207.77 32.6921L208.37 31.354L208.321 31.331C207.128 30.7434 205.826 30.4113 204.498 30.356C203.57 30.3179 202.651 30.5478 201.85 31.018C201.474 31.2237 201.162 31.5279 200.946 31.8979C200.73 32.2679 200.619 32.6897 200.625 33.118C200.6 33.4849 200.685 33.8509 200.87 34.1685C201.056 34.4861 201.332 34.7406 201.664 34.899C202.424 35.1926 203.223 35.3738 204.036 35.4371L204.614 35.513C205.431 35.5793 206.237 35.7438 207.014 36.003C207.168 36.0854 207.293 36.2125 207.374 36.3677C207.454 36.5228 207.486 36.6987 207.464 36.872C207.464 37.672 206.542 38.085 204.723 38.085C203.421 38.0144 202.169 37.5623 201.123 36.785L201.076 36.754L200.26 37.975L200.306 38.006C201.594 38.9462 203.132 39.4835 204.726 39.55C205.798 39.6062 206.865 39.3617 207.806 38.844C208.159 38.6239 208.449 38.3159 208.647 37.9501C208.845 37.5843 208.944 37.1734 208.935 36.7576C208.927 36.3418 208.81 35.9353 208.597 35.5781C208.384 35.2209 208.082 34.9252 207.72 34.72L207.722 34.73ZM162.842 45.46C162.842 43.55 161.818 42.582 159.8 42.582C157.782 42.582 156.753 43.55 156.753 45.46C156.753 47.37 157.778 48.353 159.8 48.353C161.822 48.353 162.841 47.3831 162.841 45.4631L162.842 45.46ZM161.85 45.46C161.878 45.7243 161.852 45.9915 161.775 46.2457C161.698 46.4999 161.57 46.7361 161.4 46.94C160.935 47.2693 160.367 47.4192 159.8 47.362C159.232 47.42 158.662 47.267 158.2 46.932C158.028 46.7304 157.899 46.4959 157.821 46.2429C157.742 45.9899 157.715 45.7235 157.743 45.46C157.715 45.1985 157.742 44.9341 157.822 44.6835C157.901 44.4328 158.032 44.2014 158.206 44.004C158.666 43.6732 159.232 43.5205 159.796 43.574C161.176 43.574 161.847 44.191 161.847 45.461L161.85 45.46ZM165.628 48.36V45.947H168.234V44.913H165.63V43.613H169.36V42.5751H164.6V48.362H165.634L165.628 48.36ZM174.972 48.36V45.947H177.572V44.913H174.972V43.613H178.701V42.5751H173.942V48.362H174.977L174.972 48.36ZM181.572 48.352V42.581H180.521V48.352H181.572ZM189.327 48.352L187.819 45.939C188.17 45.849 188.477 45.6376 188.687 45.3423C188.896 45.0469 188.995 44.6869 188.964 44.326C188.974 44.0829 188.928 43.8408 188.829 43.6186C188.73 43.3963 188.58 43.2 188.393 43.045C187.952 42.7145 187.409 42.5489 186.858 42.577H183.796V48.352H184.832V46.068H186.683L188.104 48.352H189.327ZM184.83 45.037V43.619H186.857C187.575 43.619 187.924 43.8521 187.924 44.3301C187.924 44.8081 187.575 45.037 186.857 45.037H184.83ZM195.162 47.905C195.386 47.7651 195.571 47.5692 195.697 47.3365C195.822 47.1039 195.885 46.8424 195.88 46.578C195.874 46.3136 195.799 46.0552 195.663 45.8283C195.527 45.6015 195.335 45.4139 195.104 45.284C194.517 45.0577 193.901 44.9166 193.274 44.865L192.933 44.822C192.556 44.7892 192.184 44.7179 191.822 44.609C191.768 44.5866 191.723 44.5473 191.693 44.4971C191.663 44.4469 191.649 44.3883 191.655 44.3301C191.655 43.8201 192.127 43.572 193.099 43.572C193.784 43.6073 194.456 43.7836 195.07 44.09L195.139 44.122L195.546 43.222L195.477 43.19C194.735 42.8245 193.925 42.6181 193.099 42.584C192.518 42.5607 191.943 42.7047 191.441 42.999C191.203 43.1302 191.005 43.3236 190.868 43.5586C190.732 43.7935 190.661 44.0612 190.665 44.333C190.649 44.5674 190.704 44.8012 190.822 45.0041C190.94 45.207 191.117 45.3697 191.329 45.471C191.802 45.6558 192.301 45.7694 192.808 45.808L193.163 45.855C193.663 45.8959 194.157 45.9966 194.633 46.155C194.72 46.2034 194.791 46.2769 194.837 46.3661C194.882 46.4552 194.899 46.5558 194.887 46.655C194.887 47.124 194.331 47.362 193.237 47.362C192.442 47.3187 191.676 47.0426 191.037 46.568L190.974 46.526L190.423 47.3511L190.487 47.393C191.289 47.9786 192.247 48.3131 193.239 48.354C193.91 48.3889 194.577 48.2355 195.165 47.9111L195.162 47.905ZM200.157 48.356V43.62H202.37V42.589H196.903V43.62H199.125V48.356H200.157ZM207.97 47.905C208.194 47.7652 208.379 47.5693 208.505 47.3367C208.63 47.1041 208.693 46.8427 208.688 46.5783C208.682 46.3139 208.608 46.0555 208.472 45.8285C208.336 45.6016 208.143 45.414 207.913 45.284C207.326 45.0575 206.709 44.9164 206.082 44.865L205.742 44.822C205.365 44.7891 204.993 44.7178 204.63 44.609C204.576 44.5866 204.53 44.5473 204.5 44.4971C204.47 44.4469 204.457 44.3883 204.463 44.3301C204.463 43.8201 204.936 43.572 205.907 43.572C206.593 43.6072 207.264 43.7835 207.878 44.09L207.947 44.122L208.355 43.222L208.285 43.19C207.543 42.8246 206.733 42.6182 205.907 42.584C205.326 42.5605 204.751 42.7046 204.25 42.999C204.012 43.1295 203.813 43.3228 203.676 43.5579C203.539 43.793 203.469 44.061 203.473 44.333C203.457 44.5677 203.512 44.8017 203.631 45.0047C203.749 45.2077 203.926 45.3702 204.139 45.471C204.612 45.6562 205.111 45.7697 205.618 45.808L205.973 45.855C206.473 45.8962 206.966 45.9969 207.442 46.155C207.53 46.2034 207.6 46.2769 207.646 46.3661C207.691 46.4552 207.709 46.5558 207.696 46.655C207.696 47.124 207.139 47.362 206.045 47.362C205.25 47.3184 204.485 47.0424 203.845 46.568L203.781 46.526L203.23 47.3511L203.294 47.393C204.097 47.9787 205.055 48.3131 206.047 48.354C206.718 48.3889 207.385 48.2355 207.973 47.9111L207.97 47.905Z" fill="white"/>
<path d="M88.1379 31.614L81.5119 24.221L81.332 24.021H79.789V35.17H81.7561V27.446L88.6889 35.163H90.103V24.013H88.136L88.1379 31.614Z" fill="white"/>
<path d="M62.965 24.024H60.998V35.1761H69.683V33.293H62.965V24.024Z" fill="white"/>
<path d="M74.838 24.024H72.871V35.173H74.838V24.024Z" fill="white"/>
<path d="M99.84 28.791V30.5911H103.116V32.777C102.025 33.562 99.6691 33.428 99.6691 33.428C97.4941 33.428 95.487 32.4981 95.487 29.7161C95.4714 29.1703 95.5703 28.6272 95.7773 28.1219C95.9842 27.6167 96.2945 27.1603 96.6884 26.7822C97.0823 26.4041 97.5511 26.1127 98.0644 25.9266C98.5777 25.7406 99.1244 25.6641 99.6691 25.702C100.938 25.6633 102.194 25.9655 103.306 26.577L104.115 24.838C102.743 24.1272 101.213 23.7768 99.6679 23.8199C95.9189 23.8199 93.518 25.997 93.518 29.72C93.518 33.443 96.1399 35.313 99.6679 35.313C103.48 35.313 105.082 33.8451 105.082 33.7321V28.798H99.839L99.84 28.791Z" fill="white"/>
<path d="M9.15001 29.285C9.48498 29.0393 9.75117 28.7115 9.92296 28.3333C10.0948 27.955 10.1664 27.5389 10.131 27.125C10.131 24.878 8.91801 24.01 6.31401 24.01H-1.52588e-05V35.164H7.04002C10.068 35.164 10.751 33.502 10.751 31.746C10.7547 31.2242 10.605 30.7128 10.3205 30.2753C10.0361 29.8378 9.62843 29.4935 9.15001 29.285ZM1.92601 25.771H6.239C7.428 25.771 8.18999 26.247 8.18999 27.171C8.21418 27.3746 8.19173 27.581 8.12431 27.7747C8.0569 27.9683 7.9463 28.144 7.80089 28.2886C7.65548 28.4331 7.47905 28.5426 7.28502 28.6089C7.09099 28.6752 6.88446 28.6964 6.68102 28.671H1.92601V25.771ZM7.041 33.402H1.92601V30.434H6.77501C7.83301 30.434 8.74199 30.666 8.74199 31.929C8.74199 33.192 7.67 33.402 7.041 33.402Z" fill="white"/>
<path d="M24.555 27.277C24.555 24.604 22.476 24.024 20.542 24.024H14.375V35.173H16.342V30.579H19.26L22.136 35.165H24.457L21.472 30.58C21.8952 30.5794 22.3139 30.4921 22.7019 30.3232C23.09 30.1543 23.4392 29.9074 23.7281 29.5981C24.0169 29.2887 24.2392 28.9233 24.3811 28.5246C24.523 28.1258 24.5815 27.7022 24.553 27.2799M16.342 28.7799V25.819H20.568C21.313 25.819 22.593 26.019 22.593 27.43C22.593 28.619 21.429 28.781 20.556 28.781H16.343" fill="white"/>
<path d="M30.282 30.503H35.672V28.703H30.282V25.903H37.711V24.0219H28.311V35.1631H37.718V33.281H30.2779L30.282 30.503Z" fill="white"/>
<path d="M43.304 24.023H41.337V35.161H43.304V24.023Z" fill="white"/>
<path d="M46.943 25.901H51.0979V35.17H53.065V25.901H57.219V24.02H46.943V25.901Z" fill="white"/>
<path d="M58.572 3.11699C57.294 2.51199 55.4849 2.81698 53.8349 3.41698V3.411C53.9816 2.42979 53.9043 1.42812 53.6089 0.481009L51.7239 1.01098C51.8905 2.11981 51.9325 3.24383 51.8489 4.36199C46.9619 7.18899 43.6689 11.918 42.7599 15.098C41.7699 18.562 44.5309 19.739 46.8539 18.034C52.5889 13.825 53.754 4.247 53.754 4.247C54.3916 3.9864 55.0847 3.89118 55.769 3.97021C56.4533 4.04923 57.1065 4.29995 57.6679 4.69903C59.6999 6.44903 57.0629 9.13903 57.0629 9.13903C56.5409 8.60642 55.8427 8.28216 55.0989 8.22698C53.0449 8.04198 51.999 10.509 54.728 10.773C55.4482 10.7861 56.1648 10.6668 56.842 10.421C57.298 11.265 57.1599 15.174 54.5209 16.33C52.1509 17.368 51.2709 15.911 51.2709 15.911C50.7882 16.4264 50.3839 17.0099 50.071 17.643C50.5378 18.2256 51.1786 18.6436 51.8998 18.8361C52.6211 19.0286 53.3849 18.9855 54.0799 18.713C54.9638 18.3961 55.7634 17.881 56.4174 17.2072C57.0714 16.5334 57.5625 15.7189 57.853 14.826C58.1879 14.0703 58.3525 13.2503 58.3353 12.4239C58.318 11.5975 58.1192 10.785 57.753 10.044C61.363 7.523 60.8329 4.096 58.5729 3.122M46.0649 17.351C44.0569 17.889 44.5899 13.483 47.1379 9.96398C49.7379 6.37798 51.7719 5.30102 51.7719 5.30102C51.3319 10.537 48.204 16.778 46.066 17.35M54.134 9.80199C53.553 9.44399 54.124 8.90899 54.665 8.90899C55.2852 8.97079 55.8676 9.23628 56.321 9.66399C56.321 9.66399 54.821 10.225 54.134 9.80199Z" fill="white"/>
<path d="M40.14 40.821H38.554V49.017H40.14V40.821Z" fill="white"/>
<path d="M57.0959 44.753L56.9079 44.616L57.078 44.456C57.4512 44.116 57.6867 43.651 57.74 43.149C57.7739 42.8681 57.7468 42.5833 57.6605 42.3139C57.5742 42.0445 57.4308 41.7968 57.24 41.5879C56.3876 40.9464 55.3497 40.5995 54.2829 40.5995C53.2161 40.5995 52.1784 40.9464 51.326 41.5879C51.1353 41.7968 50.9918 42.0445 50.9055 42.3139C50.8192 42.5833 50.7922 42.8681 50.826 43.149C50.881 43.648 51.1155 44.1101 51.4859 44.449L51.656 44.6091L51.468 44.746C51.3389 44.8368 51.2197 44.9406 51.112 45.056C50.9012 45.2903 50.7426 45.5669 50.6469 45.8672C50.5512 46.1676 50.5206 46.4849 50.557 46.798C50.657 47.939 51.6849 49.159 54.2729 49.159H54.28C56.869 49.159 57.898 47.939 57.998 46.797C58.0343 46.4842 58.0037 46.167 57.9082 45.8669C57.8127 45.5667 57.6544 45.2903 57.4439 45.056C57.3373 44.9417 57.2194 44.8385 57.092 44.748M56.312 42.996C56.266 43.442 55.62 43.896 54.281 43.896C52.942 43.896 52.2989 43.446 52.2519 43.001C52.2388 42.9198 52.2442 42.8366 52.2675 42.7576C52.2909 42.6787 52.3317 42.606 52.3869 42.545C52.9616 42.208 53.6158 42.0303 54.282 42.0303C54.9481 42.0303 55.6023 42.208 56.177 42.545C56.2324 42.6055 56.2735 42.6777 56.2968 42.7564C56.3202 42.8351 56.3254 42.918 56.312 42.999M52.167 46.0261C52.7799 45.5891 53.5312 45.3906 54.28 45.4679C55.025 45.4178 55.7658 45.6143 56.388 46.027C56.4649 46.115 56.5212 46.2189 56.5528 46.3314C56.5845 46.4438 56.5907 46.5619 56.571 46.6771C56.503 47.4551 55.34 47.731 54.271 47.731C53.202 47.731 52.0479 47.4551 51.9809 46.6771C51.9609 46.562 51.9669 46.4438 51.9984 46.3314C52.0299 46.2189 52.086 46.1149 52.1629 46.027" fill="white"/>
<path d="M65.24 45.933V40.821H61.505L59.157 45.936L59.1469 47.364H63.808V49.012H65.24V47.364H66.176V45.9319L65.24 45.933ZM60.733 45.933L62.419 42.263H63.808V45.933H60.733Z" fill="white"/>
<path d="M48.5011 44.753L48.313 44.616L48.483 44.456C48.8565 44.1162 49.0921 43.6511 49.145 43.149C49.179 42.8681 49.152 42.5833 49.0657 42.3139C48.9794 42.0445 48.8359 41.7968 48.645 41.5879C47.7925 40.9465 46.7544 40.5997 45.6875 40.5997C44.6206 40.5997 43.5827 40.9465 42.7301 41.5879C42.5394 41.7969 42.396 42.0445 42.3097 42.3139C42.2234 42.5833 42.1963 42.8681 42.2301 43.149C42.2842 43.6481 42.5185 44.1104 42.8891 44.449L43.0581 44.6091L42.87 44.746C42.741 44.8369 42.6218 44.9407 42.5141 45.056C42.303 45.2901 42.1444 45.5667 42.0488 45.8671C41.9533 46.1675 41.9231 46.485 41.9601 46.798C42.0601 47.94 43.085 49.16 45.676 49.16H45.6831C48.2721 49.16 49.3 47.94 49.4 46.798C49.4365 46.485 49.4059 46.1678 49.3104 45.8675C49.2149 45.5672 49.0566 45.2905 48.8461 45.056C48.7395 44.9416 48.6215 44.8384 48.494 44.748M47.7151 42.995C47.6681 43.441 47.0221 43.8949 45.6841 43.8949C44.3461 43.8949 43.7011 43.4451 43.6541 43.0001C43.6408 42.9188 43.6461 42.8355 43.6694 42.7565C43.6928 42.6776 43.7337 42.6049 43.7891 42.544C44.3636 42.2072 45.0176 42.0296 45.6836 42.0296C46.3496 42.0296 47.0035 42.2072 47.578 42.544C47.634 42.6042 47.6755 42.6764 47.6992 42.7551C47.723 42.8338 47.7285 42.9169 47.7151 42.998M43.5691 46.0261C44.1811 45.5845 44.9349 45.3853 45.6851 45.467C46.43 45.4172 47.1707 45.6137 47.7931 46.0261C47.8699 46.1143 47.9261 46.2184 47.9578 46.331C47.9894 46.4436 47.9957 46.5618 47.9761 46.6771C47.9091 47.4551 46.745 47.731 45.676 47.731C44.607 47.731 43.452 47.4551 43.385 46.6771C43.3653 46.562 43.3715 46.4439 43.403 46.3315C43.4344 46.2191 43.4904 46.1151 43.567 46.027" fill="white"/>
<path d="M131.442 0H130.99V53.767H131.442V0Z" fill="white"/>
</g>
<defs>
<clipPath id="clip0_1_38">
<rect width="210" height="53.767" fill="white"/>
</clipPath>
</defs>
</svg>
